<svg fill="none" height="152" viewBox="0 0 202 152" width="202" xmlns="http://www.w3.org/2000/svg"><g clip-rule="evenodd" fill-rule="evenodd"><path d="m74.6949 54.1794c4.7359 0 8.5754 3.5666 8.5754 7.9667h.0003v2.2316c0 .2862-.2649.5693-.573.5693h-3.1551c-.3085 0-.5584-.2831-.5584-.5693v-2.2313c0-2.1973-1.9217-3.9845-4.2865-3.9845-2.365 0-4.2864 1.7872-4.2864 3.9845v2.2313c0 .2862-.2704.5693-.5786.5693h-3.1547c-.3085 0-.5532-.2831-.5532-.5693v-2.3943c0-.0061-.0002-.012-.0004-.0178-.0004-.0124-.0008-.0244.0007-.0369.1242-4.2989 3.9124-7.7493 8.5699-7.7493zm.0287 36.2823c-4.7622 0-8.7661-3.2319-9.8494-7.4538 0 0-.313-1.3964-.313-2.3155 0-.9192.2966-2.3298.2966-2.3298 1.0911-4.2118 5.0899-7.3481 9.8441-7.3481 5.5918 0 10.1801 4.3292 10.1801 9.6549v2.3423h-14.8559c.8772 1.6326 2.6513 2.5512 4.6978 2.5512h13.3553l.0183-13.8105c0-2.059-1.7689-3.7436-3.9307-3.7436h-18.9292c-2.1618 0-3.931 1.6338-3.931 3.6927v18.0279c0 2.0589 1.7689 3.7947 3.931 3.7947h18.9286c1.9403 0 3.5587-1.3266 3.8715-3.0618h-13.3141zm-.0235-14.8654c-2.0379 0-3.8107 1.1886-4.6913 2.7192h9.3834c-.881-1.5306-2.6538-2.7192-4.6921-2.7192z" fill="#c8036f"/><path d="m100.762 85.5612h-5.0579v-4.8345c0-2.7012 2.2577-4.8988 5.0579-4.8988 2.799 0 5.077 2.1979 5.077 4.8988 0 2.7018-2.277 4.8345-5.077 4.8345zm0-14.4926c-5.5635 0-10.095 4.3411-10.095 9.6752v.204 19.9222h5.0368v-10.41h5.0472c5.563 0 10.078-4.3986 10.078-9.7333 0-5.3338-4.505-9.6581-10.067-9.6581zm25.163 7.2463h-6.564c-.73 0-1.324-.5539-1.324-1.2473 0-.6936.594-1.3042 1.324-1.3042h9.993v-4.6948h-9.993c-3.487 0-6.325 2.7079-6.325 6.0217 0 3.3132 2.838 6.0214 6.325 6.0214h6.475c.73 0 1.325.5516 1.325 1.245 0 .6939-.595 1.2045-1.325 1.2045h-13.884c-1.178 2.1433-2.325 3.9805-4.651 4.8988h18.624c3.429-.0471 6.235-2.8108 6.235-6.0952 0-3.2839-2.806-6.0028-6.235-6.0499zm-20.399 17.9031c-.183 0-.354-.0968-.354-.3081 0-.2897.26-.4283.487-.4283.171 0 .323.1084.323.3077 0 .2773-.259.4287-.456.4287zm-1.532 0c-.178 0-.342-.0968-.342-.302 0-.2958.253-.4344.481-.4341.184 0 .323.1023.323.3013 0 .2834-.241.4348-.462.4348zm1.963 2.9276.456-2.4597h-.702l-.457 2.4614c-.146.8029-.747 1.2017-1.45 1.2017-.684 0-1.045-.4371-.906-1.2034l.456-2.4597h-.703l-.457 2.4614c-.221 1.2007.539 1.8107 1.521 1.8107 1.159 0 2.014-.57 2.242-1.8124zm2.46 1.2244c-.488 0-.823-.32-.798-.8153.038-.6573.646-1.1217 1.254-1.1217.476 0 .817.2952.792.7962-.038.6876-.633 1.1408-1.248 1.1408zm-.304-3.6827v-.0003zm-.653 0h.653l-.316 1.6992c.272-.3496.817-.5347 1.197-.5347.785 0 1.33.4385 1.33 1.2528 0 1.1524-.843 1.8454-1.919 1.8454-.418 0-.773-.148-.988-.522l-.121.443h-.615zm6.146 2.4496c.051-.5106-.266-.7181-.792-.7181-.475 0-.912.2075-1.102.7181zm-2.002.51c-.025.4081.311.7421.881.7421.316 0 .734-.118.962-.323l.355.39c-.386.338-.956.506-1.437.506-.9 0-1.426-.513-1.426-1.2976 0-1.0436.861-1.8215 1.964-1.8215 1.007 0 1.577.5791 1.235 1.804zm4.246-1.3418.032-.3935h-.609l-.551 2.9594h.653l.297-1.602c.102-.5492.545-.8061.996-.8061.24 0 .379.0604.518.1807l.393-.5431c-.145-.1508-.418-.2537-.722-.2537-.336 0-.703.0776-1.007.4583zm4.87-.3945.329 2.3404 1.191-2.3404h.728l-1.633 2.9594h-.767l-.311-1.9522-.5.9704-.545.9818h-.76l-.551-2.9594h.734l.324 2.3404 1.197-2.3404zm4.301.5082c.526 0 .843.2075.792.7181h-1.894c.19-.5106.627-.7181 1.102-.7181zm-.329 1.9702c-.57 0-.906-.334-.881-.7421h2.535c.341-1.2249-.229-1.804-1.236-1.804-1.102 0-1.964.7779-1.964 1.8215 0 .7846.526 1.2976 1.426 1.2976.481 0 1.051-.168 1.437-.506l-.355-.39c-.227.205-.645.323-.962.323zm2.861-3.2836c0 .211.165.32.343.32.253 0 .487-.1572.487-.4528 0-.1996-.158-.3138-.329-.3138-.234 0-.501.145-.501.4466zm.577.8062-.551 2.9594h-.653l.551-2.9594zm2.124.454c.311 0 .57.0605.773.2776l.444-.4098c-.292-.2961-.646-.3984-1.128-.3984-.633 0-1.476.2589-1.476 1.0017 0 .5609.583.7478 1.115.7957.456.0424.703.145.646.4106-.057.277-.424.386-.735.386-.367-.006-.779-.133-1.013-.4403l-.425.4403c.33.441.818.549 1.324.549.811 0 1.394-.326 1.502-.881.152-.766-.577-.947-1.147-.9952-.367-.03-.614-.1206-.614-.3377 0-.2598.303-.3985.734-.3985zm2.832-.4547-.297 1.5937c-.096.5074.145.8574.69.8574.513 0 .95-.4052 1.038-.9001l.286-1.5513h.653l-.551 2.9594h-.59l.045-.429c-.368.332-.729.489-1.166.489-.766 0-1.222-.524-1.058-1.4228l.298-1.5966h.652zm5.535 1.376-.298 1.5841h.658l.298-1.5902c.171-.9111-.323-1.4144-1.083-1.4144-.406 0-.779.1575-1.14.4772l.044-.4324h-.595l-.552 2.9598h.653l.285-1.5501c.089-.4891.526-.8869 1.045-.8869.596 0 .779.34.685.8529zm2.095.287c0 .5061.349.8141.849.8141 1.349 0 1.71-1.9727.361-1.9727-.64-.0003-1.21.4519-1.21 1.1586zm-.184 1.7061c-.044.408.285.574.836.574.482 0 1.001-.257 1.122-.908l.095-.508c-.286.38-.805.53-1.191.53-.799 0-1.355-.453-1.355-1.2738 0-1.1697.912-1.8462 1.944-1.8462.437 0 .83.1973.97.5353l.107-.4714h.634l-.545 3.0481c-.203 1.128-1.083 1.478-1.888 1.478-.963 0-1.495-.443-1.362-1.158z" fill="#71706f"/></g></svg>