<svg width="51" height="30" viewBox="0 0 51 30" fill="none" xmlns="http://www.w3.org/2000/svg">
<path opacity="0.8" fill-rule="evenodd" clip-rule="evenodd" d="M16.3281 1.80283C16.3281 0.881854 17.0747 0.135254 17.9957 0.135254L47.0116 0.135251C47.9325 0.135251 48.6791 0.881851 48.6791 1.80283C48.6791 2.72381 47.9325 3.47041 47.0116 3.47041L17.9957 3.47041C17.0747 3.47041 16.3281 2.72381 16.3281 1.80283Z" fill="#231F20"/>
<path fill-rule="evenodd" clip-rule="evenodd" d="M2.32031 1.80283C2.32031 0.881854 3.06691 0.135254 3.98789 0.135254L13.9934 0.135255C14.9143 0.135255 15.6609 0.881855 15.6609 1.80283C15.6609 2.72381 14.9143 3.47041 13.9934 3.47041L3.98789 3.47041C3.06691 3.47041 2.32031 2.72381 2.32031 1.80283Z" fill="#ED1C24"/>
<path fill-rule="evenodd" clip-rule="evenodd" d="M24.3389 29.1122L16.8449 21.3344C16.385 20.8571 16.385 20.0833 16.8449 19.606L24.3389 11.8282C24.7988 11.3509 25.5444 11.3509 26.0042 11.8282C26.4641 12.3055 26.4641 13.0793 26.0042 13.5566L20.5205 19.248H34.5V21.6924H20.5205L26.0042 27.3838C26.4641 27.8611 26.4641 28.635 26.0042 29.1122C25.5444 29.5895 24.7988 29.5895 24.3389 29.1122Z" fill="#231F20"/>
</svg>
