<svg width="51" height="31" viewBox="0 0 51 31" fill="none" xmlns="http://www.w3.org/2000/svg">
<path d="M35.5002 11.3853H33.0001V6.38538C33.0001 2.93313 30.2022 0.135254 26.7499 0.135254H24.2501C20.7978 0.135254 17.9999 2.93313 17.9999 6.38538V11.3853H15.4998C14.1254 11.3853 13 12.511 13 13.8854V27.6355C13 29.0099 14.1254 30.1353 15.4998 30.1353H35.5002C36.8746 30.1353 38 29.0099 38 27.6355V13.8854C38 12.511 36.8746 11.3853 35.5002 11.3853ZM26.7499 21.0385V25.1354H24.2501V21.0385C23.5054 20.6065 22.9998 19.8081 22.9998 18.8853C22.9998 17.506 24.1192 16.3855 25.5 16.3855C26.8808 16.3855 28.0002 17.506 28.0002 18.8853C28.0002 19.8081 27.4946 20.6065 26.7499 21.0385ZM30.4999 11.3853H20.5001V6.38538C20.5001 4.315 22.1797 2.63538 24.2501 2.63538H26.7499C28.8203 2.63538 30.4999 4.315 30.4999 6.38538V11.3853Z" fill="#231F20"/>
</svg>
