<svg width="51" height="31" viewBox="0 0 51 31" fill="none" xmlns="http://www.w3.org/2000/svg">
<path d="M45.1093 10.5256C44.9217 10.3381 44.6825 10.2108 44.4221 10.16C44.1618 10.1091 43.8922 10.1371 43.6479 10.2403C43.4035 10.3435 43.1955 10.5172 43.0504 10.7393C42.9053 10.9613 42.8297 11.2216 42.8333 11.4868V19.4896C42.8297 19.667 42.8615 19.8433 42.9269 20.0082C42.9923 20.1731 43.0899 20.3233 43.2141 20.45C43.3382 20.5767 43.4864 20.6774 43.65 20.7461C43.8135 20.8148 43.9891 20.8502 44.1665 20.8502C44.3439 20.8502 44.5195 20.8148 44.6831 20.7461C44.8466 20.6774 44.9948 20.5767 45.119 20.45C45.2431 20.3233 45.3408 20.1731 45.4061 20.0082C45.4715 19.8433 45.5033 19.667 45.4997 19.4896V11.4868C45.5022 11.3086 45.4689 11.1318 45.4018 10.9667C45.3348 10.8016 45.2353 10.6516 45.1093 10.5256ZM39.7747 10.5458C39.5335 10.3046 39.2006 10.1554 38.8319 10.1554H30.8328L29.8679 12.0853C29.6425 12.5369 29.1818 12.82 28.6765 12.82H22.3235C21.8182 12.82 21.3584 12.5359 21.1321 12.0853L20.1672 10.1554L12.1662 10.1536C11.429 10.1536 10.8321 10.7505 10.833 11.4868V19.4896C10.833 20.225 11.4299 20.8238 12.1662 20.8228L38.8319 20.821C39.5692 20.821 40.1651 20.2232 40.1651 19.4878V11.4886C40.1656 11.1205 40.016 10.7871 39.7747 10.5458ZM36.718 13.6026C37.2004 14.0851 37.4987 14.7519 37.4987 15.4882C37.4987 16.9609 36.305 18.1546 34.8323 18.1546C33.3597 18.1546 32.166 16.9609 32.166 15.4882C32.166 14.0155 33.3597 12.8218 34.8323 12.8218C35.5687 12.8218 36.2355 13.1201 36.718 13.6026ZM18.0514 13.6044C18.5339 14.0869 18.834 14.7519 18.834 15.4882C18.835 16.9618 17.6413 18.1555 16.1677 18.1546C14.695 18.1546 13.5013 16.9609 13.5013 15.4882C13.5013 14.0155 14.695 12.8218 16.1677 12.8218C16.904 12.8218 17.5689 13.122 18.0514 13.6044ZM7.77628 10.5256C7.58867 10.3381 7.34941 10.2108 7.08908 10.16C6.82875 10.1091 6.55917 10.1371 6.31483 10.2403C6.07048 10.3435 5.86246 10.5172 5.71736 10.7393C5.57226 10.9613 5.49668 11.2216 5.50028 11.4868L5.50028 19.4896C5.49667 19.667 5.52849 19.8433 5.59387 20.0082C5.65925 20.1731 5.75687 20.3233 5.88103 20.45C6.00518 20.5767 6.15337 20.6774 6.31692 20.7461C6.48046 20.8148 6.65607 20.8502 6.83347 20.8502C7.01086 20.8502 7.18647 20.8148 7.35002 20.7461C7.51356 20.6774 7.66175 20.5767 7.78591 20.45C7.91006 20.3233 8.00769 20.1731 8.07307 20.0082C8.13845 19.8433 8.17027 19.667 8.16666 19.4896V11.4868C8.16912 11.3086 8.13583 11.1318 8.06878 10.9667C8.00173 10.8016 7.90227 10.6516 7.77628 10.5256Z" fill="#231F20"/>
</svg>
