<svg width="27" height="24" viewBox="0 0 27 24" fill="none" xmlns="http://www.w3.org/2000/svg">
<path d="M21.6406 18H5.50314C4.88968 18 4.39062 17.4792 4.39062 16.8391C4.39062 16.2122 4.86055 15.7031 5.46068 15.679L22.8602 14.9802L26.9997 3.75H4.85349L4.28604 0H0.078125V1.5H3.05771L4.98541 14.24C3.81827 14.4895 2.95313 15.5531 2.95313 16.8391C2.95313 18.3062 4.09723 19.5 5.50314 19.5H5.50924C5.26164 19.943 5.10937 20.4511 5.10937 21C5.10937 22.6545 6.39911 24 7.98437 24C9.56962 24 10.8594 22.6545 10.8594 21C10.8594 20.4511 10.7071 19.943 10.4595 19.5H19.1655C18.9179 19.943 18.7656 20.4511 18.7656 21C18.7656 22.6545 20.0554 24 21.6406 24C23.2259 24 24.5156 22.6545 24.5156 21C24.5156 19.3455 23.2259 18 21.6406 18ZM24.9066 5.25L21.8586 13.5198L6.42563 14.1395L5.08047 5.25H24.9066ZM9.42188 21C9.42188 21.8269 8.77718 22.5 7.98438 22.5C7.19157 22.5 6.54688 21.8269 6.54688 21C6.54688 20.1731 7.19157 19.5 7.98438 19.5C8.77718 19.5 9.42188 20.1731 9.42188 21ZM21.6406 22.5C20.8478 22.5 20.2031 21.8269 20.2031 21C20.2031 20.1731 20.8478 19.5 21.6406 19.5C22.4334 19.5 23.0781 20.1731 23.0781 21C23.0781 21.8269 22.4334 22.5 21.6406 22.5Z" fill="currentColor"/>
</svg>
