<svg width="32" height="33" viewBox="0 0 32 33" fill="none" xmlns="http://www.w3.org/2000/svg">
<path d="M12.7329 20.3353L24.0329 9.03525C24.2996 8.76859 24.6107 8.63525 24.9663 8.63525C25.3218 8.63525 25.6329 8.76859 25.8996 9.03525C26.1663 9.30192 26.2996 9.61881 26.2996 9.98592C26.2996 10.353 26.1663 10.6695 25.8996 10.9353L13.6663 23.2019C13.3996 23.4686 13.0885 23.6019 12.7329 23.6019C12.3774 23.6019 12.0663 23.4686 11.7996 23.2019L6.06626 17.4686C5.79959 17.2019 5.67159 16.8855 5.68226 16.5193C5.69292 16.153 5.83203 15.8361 6.09959 15.5686C6.36714 15.301 6.68403 15.1677 7.05026 15.1686C7.41648 15.1695 7.73292 15.3028 7.99959 15.5686L12.7329 20.3353Z" fill="#231F20"/>
</svg>
