<svg width="945" height="411" viewBox="0 0 945 411" fill="none" xmlns="http://www.w3.org/2000/svg">
<path d="M854.14 0.865234C856.049 0.865234 857.385 1.62625 858.148 3.14826C859.294 4.28978 859.485 5.81178 858.721 7.7143L818.065 117.299C816.92 120.343 814.82 121.865 811.766 121.865H780.844C778.936 121.865 777.409 121.294 776.263 120.153C775.5 119.011 775.309 117.489 775.691 115.587L805.467 6.00201C806.231 2.57748 808.33 0.865234 811.766 0.865234H854.14ZM939.461 0.865234C941.37 0.865234 942.706 1.62625 943.469 3.14826C944.615 4.28978 944.805 5.81178 944.042 7.7143L902.813 117.299C901.668 120.343 899.568 121.865 896.514 121.865H865.593C863.684 121.865 862.157 121.294 861.012 120.153C860.248 119.011 860.057 117.489 860.439 115.587L890.788 6.00201C891.551 2.57748 893.651 0.865234 897.087 0.865234H939.461Z" fill="#231F20" fill-opacity="0.1"/>
<path d="M85.1894 280.865C87.245 280.865 88.6839 281.683 89.5061 283.318C90.7394 284.544 90.945 286.18 90.1228 288.224L46.3391 405.96C45.1058 409.23 42.8447 410.865 39.5558 410.865H6.25557C4.2 410.865 2.55553 410.252 1.32219 409.026C0.499958 407.799 0.294458 406.164 0.705571 404.12L32.7724 286.384C33.5946 282.705 35.8558 280.865 39.5558 280.865H85.1894ZM177.073 280.865C179.129 280.865 180.568 281.683 181.39 283.318C182.623 284.544 182.829 286.18 182.007 288.224L137.606 405.96C136.373 409.23 134.112 410.865 130.823 410.865H97.5228C95.4672 410.865 93.8228 410.252 92.5894 409.026C91.7672 407.799 91.5617 406.164 91.9728 404.12L124.656 286.384C125.479 282.705 127.74 280.865 131.44 280.865H177.073Z" fill="#757373" fill-opacity="0.8"/>
</svg>
