<svg width="141" height="467" viewBox="0 0 141 467" fill="none" xmlns="http://www.w3.org/2000/svg">
<g clip-path="url(#clip0_2013_496)">
<path d="M139.33 230.414C127.454 228.97 116.305 224.31 105.485 219.518C99.7451 216.958 95.3908 213.874 91.8282 208.688C90.1789 206.26 88.5295 203.766 86.9461 201.337C85.4947 199.106 82.9877 196.349 81.9321 193.592C81.8661 187.62 81.8661 181.647 81.8001 175.674C84.769 181.647 88.1996 187.292 92.29 192.542C96.3145 197.859 101.131 201.994 107.728 203.635C119.933 206.719 131.941 200.681 139.396 191.098C139.66 190.77 139.33 190.114 138.868 190.179C128.114 191.164 117.492 189.064 107.398 185.322C98.0298 181.778 87.342 177.446 84.4391 167.273C90.5747 172.721 99.0194 175.477 107.266 174.427C117.096 173.246 125.673 166.945 130.357 158.412C130.687 157.887 130.093 157.231 129.565 157.559C125.541 159.725 121.121 160.184 116.635 160.578C114.391 160.775 112.148 160.906 109.905 161.103C114.787 158.937 119.274 155.59 122.902 151.914C123.364 151.389 122.77 150.602 122.176 150.93C110.367 157.296 91.1025 157.756 82.9877 145.088C82.8557 144.891 82.7238 144.826 82.5258 144.826C82.5258 144.826 82.5258 144.76 82.4599 144.76C82.3939 144.629 82.3939 144.563 82.3279 144.432C82.3939 144.301 82.3939 144.104 82.2619 143.973C82.13 143.71 81.9321 143.644 81.6682 143.579C81.6682 140.034 81.6682 136.425 81.7342 132.88C81.7342 130.714 81.8001 128.483 81.8001 126.317C86.4843 130.977 92.0261 135.112 98.6236 136.096C104.825 137.015 111.291 135.046 115.117 129.861C115.513 129.336 114.787 128.745 114.259 129.008C108.19 131.961 101.263 128.351 95.5228 126.186C92.6859 125.07 89.6511 124.216 87.0121 122.773C84.571 121.394 83.0536 119.491 81.8661 117.128C81.8661 114.634 81.9321 112.14 81.9321 109.711C83.5814 111.943 85.3627 114.24 87.6059 115.75C90.5747 117.653 94.5991 117.719 97.9638 117.456C105.683 116.931 110.433 110.368 115.249 105.117C115.711 104.592 115.183 103.87 114.523 104.132C104.165 108.399 92.422 112.008 81.9321 106.167C81.9981 103.476 81.9981 100.785 82.064 98.0938C94.3352 108.924 113.6 107.283 123.826 93.8932C124.156 93.4338 123.628 92.8431 123.166 92.9743C115.711 94.8121 108.784 93.6963 101.46 92.0554C95.1269 90.5458 86.8801 90.152 82.8557 84.3105C82.9877 81.6851 83.1196 79.0598 83.2516 76.4344C85.1648 76.8938 87.144 77.0907 88.9913 77.0907C93.0157 77.0251 96.8423 74.9248 99.8771 72.4306C100.273 72.1025 100.009 71.3148 99.4812 71.3805C94.1373 71.9712 88.7934 71.8399 83.5155 71.0523C83.5155 70.8554 83.5155 70.6585 83.5155 70.4616C87.144 68.6238 90.3768 65.8015 92.5539 62.1916C92.8838 61.6665 92.29 61.0758 91.7622 61.3384C89.1233 62.7167 86.4183 63.8325 83.5814 64.6201C83.5814 62.3885 83.5814 60.1569 83.5155 57.9254C84.5051 58.0566 85.3627 58.1223 85.5607 58.1223C90.6407 58.2535 95.5228 56.7439 99.7451 53.9873C100.207 53.6591 100.075 52.8058 99.4812 52.8058C94.5332 52.8715 91.8282 50.5086 88.5955 47.2269C87.7378 46.3736 86.7482 45.6516 85.6926 45.3235C86.8801 44.9297 88.0017 44.4046 88.5955 43.617C89.5191 42.4355 89.0573 40.8603 88.1996 39.7445C86.7482 37.7755 84.3072 36.2002 82.2619 34.6906C82.2619 34.3625 81.8661 34.0343 81.5362 34.0999C81.4043 33.9687 81.2723 33.903 81.1404 33.7717C80.5466 33.3123 79.623 34.0999 80.2827 34.625L80.5466 35.0188C78.3035 38.1693 76.3243 41.451 74.6089 44.9297C74.411 45.3235 74.543 45.6516 74.9388 45.8485C75.0048 45.8485 75.1367 45.9142 75.2027 45.9142C72.9596 47.2269 70.5845 48.4739 68.6713 50.1148C67.8796 50.7712 67.0219 51.5588 67.7476 52.6746C68.6713 54.1185 71.904 54.6436 73.3554 55.0374C73.8832 55.1687 74.411 55.3 74.9388 55.4312C70.5185 56.6127 65.9663 57.2034 61.3481 57.269C60.8203 57.269 60.5564 57.9254 60.8863 58.3192C63.2614 61.2727 67.9455 61.1415 71.4422 61.404C73.2235 61.5353 74.8069 61.4696 76.4562 60.682C77.7097 60.0257 78.7653 59.1068 79.9529 58.3192C79.8869 60.7476 79.8209 63.1761 79.7549 65.6046C74.543 66.5891 69.1991 66.5891 63.8551 65.539C63.5912 65.4734 63.3273 65.6046 63.1954 65.8015C62.9975 65.7359 62.7336 65.6703 62.5357 65.6046C61.9419 65.4077 61.546 66.1953 61.9419 66.5891C65.5045 70.921 70.1227 72.6932 74.8069 72.6275C74.543 72.8901 74.477 73.3495 74.8728 73.5464C76.2583 74.2028 77.7757 74.8591 79.4251 75.3842C79.3591 76.6313 79.3591 77.8783 79.2931 79.1254C78.9632 79.2567 78.5674 79.3879 78.2375 79.5848C78.1056 79.5192 77.9736 79.4536 77.7757 79.4536C74.1471 80.1099 70.5845 80.0443 66.9559 79.3223C66.4281 79.191 65.9663 79.7161 66.2302 80.2412C67.5497 82.4071 70.2546 82.9978 72.5637 83.5886C74.8069 84.1793 76.984 84.3762 79.1612 83.9167C79.1612 84.1793 79.1612 84.3762 79.1612 84.6387C72.6957 89.1675 65.0427 91.6616 57.0598 91.8585C56.7959 91.8585 56.598 91.9898 56.532 92.1867C56.466 92.1867 56.466 92.1211 56.4 92.1211C55.6743 91.7273 55.0806 92.7774 55.7403 93.1712C59.8307 95.4684 64.4489 96.5842 69.1331 96.453C72.7617 96.3217 75.7965 95.2715 78.8973 93.8932C78.8313 96.8468 78.7653 99.8003 78.6993 102.754C78.1056 103.213 77.5118 103.607 76.8521 103.935C76.7201 103.935 76.6541 103.935 76.5222 104.001C76.2583 104.132 76.0604 104.264 75.7965 104.395C75.4666 104.526 75.1367 104.657 74.7409 104.723C74.543 104.789 74.411 104.92 74.345 105.117C70.6505 106.889 67.1539 107.808 62.7336 107.545C57.8515 107.283 53.0354 106.692 48.6811 104.329C48.0213 104.001 47.4935 104.723 47.8894 105.248C51.5839 109.711 56.9278 112.599 62.7336 113.124C65.6364 113.387 68.8032 113.124 71.5741 112.008C74.345 110.893 76.4562 108.661 78.5674 106.692C78.4354 111.615 78.3695 116.472 78.2375 121.394C74.411 126.12 69.0011 129.73 62.6016 128.155C61.8099 127.958 61.4801 129.139 62.2718 129.336C62.3377 129.336 62.4697 129.402 62.5357 129.402C63.5253 131.961 68.3414 132.29 70.6505 132.158C73.4214 132.027 75.9284 131.108 78.1056 129.533C78.0396 131.371 78.0396 133.208 78.0396 135.046C77.5778 135.44 77.116 135.899 76.6541 136.293C69.6609 139.509 62.0079 140.822 54.3548 139.969C50.4624 139.509 46.4379 138.656 42.6774 137.54C41.0281 137.015 39.9725 135.703 38.521 135.177C37.6634 134.915 37.7953 134.784 37.0036 135.177C36.6738 135.309 36.6078 135.899 36.8717 136.162C42.6774 141.675 49.3408 149.158 58.1154 148.37C65.7684 147.648 71.838 142.397 77.3799 137.343C77.3799 137.343 77.3799 137.343 77.4458 137.343C77.5778 137.278 77.6438 137.212 77.7097 137.081C77.8417 136.95 77.9736 136.884 78.1056 136.753C78.0396 139.509 78.0396 142.266 77.9736 145.023C77.9076 145.023 77.8417 145.088 77.7757 145.154C69.8588 150.995 61.678 156.968 51.9138 159.134C42.1496 161.3 31.9236 160.053 22.9511 155.656C22.3573 155.327 21.7636 156.049 22.1594 156.574C26.5797 161.825 30.802 168.323 36.5418 172.261C41.3579 175.543 47.3616 175.937 52.8374 174.493C65.5045 171.145 72.2998 159.462 77.9736 148.633C77.9076 152.505 77.8417 156.378 77.7757 160.184C77.5778 160.119 77.3799 160.119 77.1819 160.316C74.6089 162.81 72.0359 165.304 69.5289 167.798C69.199 168.126 69.331 168.717 69.7928 168.848C72.9596 169.636 76.1263 168.192 77.7097 165.501C77.7097 165.96 77.7097 166.354 77.7097 166.813C77.5778 166.813 77.4458 166.879 77.3139 166.945C65.1086 178.168 50.0665 185.782 33.7709 189.064C33.1111 189.195 33.2431 190.048 33.7709 190.245C43.733 194.643 55.8723 195.43 65.5705 189.786C71.1123 186.57 75.4666 181.516 77.5778 175.609C77.5118 180.4 77.4458 185.126 77.4458 189.917C77.1819 189.786 76.8521 189.786 76.7201 190.114C73.1575 197.071 67.8136 202.65 60.9523 206.522C60.5564 206.785 60.5564 207.573 61.0842 207.638C68.8032 208.885 74.8728 203.635 77.3799 196.743C77.3799 198.975 77.3139 201.14 77.3139 203.372C72.7617 209.542 66.4941 213.939 59.9627 217.877C52.9694 222.144 45.8442 226.213 38.719 230.348C38.2571 230.61 38.3231 231.332 38.8509 231.464C47.6915 234.352 57.7195 230.217 64.9767 225.097C70.2546 221.356 74.6089 216.499 77.1819 210.723C77.116 215.318 77.116 219.912 77.116 224.506C77.05 224.572 76.984 224.572 76.918 224.703C64.9107 240.981 44.1288 249.579 24.0727 246.691C23.5449 246.625 23.215 247.413 23.6109 247.741C32.1215 255.224 44.5247 256.471 54.8826 252.336C64.7788 248.398 72.1679 240.193 77.05 231.004C76.984 235.796 76.984 240.587 76.984 245.313C72.4318 251.942 66.4941 257.521 59.5668 261.524C56.1362 263.493 52.5076 265.134 48.6811 266.316C45.7782 267.235 41.4239 267.169 39.2467 269.335C38.9828 269.598 38.9829 270.123 39.3787 270.32C52.1117 276.161 64.185 268.482 74.0152 260.54C67.2858 269.466 53.6291 280.362 62.9975 291.191C63.3273 291.585 63.8551 291.323 64.0531 290.929C66.758 283.381 71.1783 276.686 76.984 271.173C76.984 275.964 76.918 280.821 76.918 285.612C76.918 307.141 76.918 328.734 76.918 350.263C76.7201 350.656 77.05 351.313 77.6438 351.182C80.2827 350.788 82.9877 350.46 85.6266 350.066C85.8905 350.066 86.0885 349.738 86.0885 349.475C85.4947 329.128 84.9009 308.781 84.3071 288.369C84.3071 288.172 84.1752 288.041 84.0433 287.91C83.8453 281.215 83.6474 274.455 83.4495 267.76C86.3524 271.96 88.7274 276.424 90.5087 281.215C90.7726 281.871 91.6303 281.74 91.6963 281.084C92.29 276.883 92.0261 272.814 90.8386 268.744C94.0054 270.779 97.1721 272.748 100.339 274.783C103.638 276.883 106.936 279.311 110.631 280.624C116.305 282.659 122.572 281.084 126.927 276.949C127.322 276.555 127.058 275.964 126.531 275.898C121.781 275.57 116.832 275.242 112.478 273.076C108.916 271.304 105.947 268.482 102.582 266.447C99.4812 264.609 96.1825 263.297 92.8178 262.181C90.8386 261.524 88.8594 260.934 87.0121 260.015C86.3523 259.687 85.6926 259.359 85.0988 258.965C84.5051 258.637 83.9773 258.243 83.5155 257.783C83.3835 257.718 83.3175 257.652 83.2516 257.586C83.2516 257.127 83.2516 256.667 83.2516 256.274C83.5814 256.077 83.5814 255.486 83.2516 255.289C83.1856 253.517 83.1856 251.745 83.1196 249.907C83.2516 250.301 83.4495 250.695 83.5814 251.023C83.6474 251.22 83.7794 251.285 83.9773 251.351C85.4287 253.845 88.7274 255.486 91.0365 256.667C94.7311 258.571 98.7555 259.818 102.912 260.343C111.884 261.59 121.055 259.621 128.576 254.567C129.104 254.173 128.84 253.254 128.114 253.451C119.01 255.945 109.905 253.386 101.79 249.054C96.0506 245.969 89.5191 242.097 86.1544 236.321C86.1544 236.189 86.1544 236.058 86.1544 235.927C85.5607 234.483 84.9669 233.039 84.3071 231.529C83.9773 230.742 83.7794 229.232 82.7897 228.97H82.7238C82.6578 226.607 82.6578 224.178 82.5918 221.815C90.5087 228.707 99.0194 235.074 109.641 237.043C120.065 238.946 130.885 236.977 139.923 231.529C140.187 231.201 139.923 230.479 139.33 230.414ZM79.4251 74.0715C78.1056 73.6121 76.8521 73.1526 75.6645 72.5619C76.918 72.4963 78.2375 72.2994 79.491 71.9056C79.491 72.6275 79.491 73.3495 79.4251 74.0715ZM82.064 54.9061C81.9321 54.9061 81.8661 54.9061 81.7342 54.9061C81.7342 53.2653 81.8001 51.5588 81.8001 49.9179C81.9321 51.5588 81.9981 53.1996 82.064 54.9061ZM79.689 121.788C79.689 122.116 79.689 122.444 79.689 122.773C79.623 122.838 79.557 122.904 79.491 122.969C79.491 122.641 79.491 122.313 79.491 121.985C79.557 121.919 79.623 121.854 79.689 121.788ZM79.491 123.823C79.557 123.888 79.623 123.954 79.689 124.02C79.689 124.807 79.689 125.66 79.689 126.448C79.623 126.448 79.623 126.514 79.557 126.514C79.491 126.579 79.491 126.579 79.4251 126.645L79.491 123.823Z" fill="#C8C7C8"/>
<path d="M51.1734 392.289C53.5433 395.403 55.617 398.101 58.2831 401.525C54.0617 400.072 52.1362 397.374 51.1734 392.289ZM55.2467 383.365C54.9504 383.78 54.5801 384.195 54.2839 384.506C55.9873 386.997 57.6906 389.487 59.3199 391.978C59.6902 391.563 60.0605 391.148 60.3567 390.629C60.2086 386.582 55.9872 386.997 55.2467 383.365ZM99.3855 387.308C99.4595 387.516 100.052 388.761 100.57 390.006L99.6817 390.836C94.5717 382.327 92.3499 370.912 87.314 362.403L86.6474 362.921C86.9437 367.695 87.2399 372.572 87.4621 377.242C84.796 373.403 84.7219 368.214 84.4257 362.921C84.2776 360.12 83.6851 357.318 83.2407 354.204C81.3152 355.553 80.2044 356.384 78.7232 357.421C78.7232 353.478 78.5751 350.261 75.1684 349.742C75.3165 352.544 75.4646 355.138 75.6127 357.733C75.3906 358.044 75.0943 358.355 74.8721 358.667C73.8353 357.11 72.7985 355.346 71.6876 353.997C70.2065 352.233 68.5031 349.327 66.8738 349.327C64.8002 349.327 63.9856 348.393 63.6153 346.214C63.0228 342.997 61.7638 341.855 59.3939 342.27C56.876 342.789 54.8764 341.855 55.0985 337.393C55.0985 336.978 54.7283 336.459 54.5801 335.94C53.9136 336.978 53.3952 337.808 52.8768 338.535C51.3956 335.836 50.4329 332.204 48.8036 331.478C45.3969 329.818 43.4714 326.497 41.3977 322.969C40.8053 322.035 40.5831 320.686 40.1388 319.44C38.1392 322.346 39.4722 326.704 35.4731 326.186C36.2877 323.072 37.0283 320.27 37.6948 317.572C36.2137 316.638 34.6584 315.704 32.5848 314.459C32.881 320.686 33.1773 326.393 33.5476 332.204C33.6216 333.138 34.3622 334.384 35.0287 334.695C38.5095 336.148 42.0643 337.186 45.545 338.638C47.7668 339.572 49.9145 340.818 52.0622 341.959C52.2843 342.063 52.3584 342.582 52.5806 342.997C51.914 343.827 51.2475 344.553 50.581 345.28C51.6919 348.393 53.3211 348.393 55.3207 347.874C58.2831 347.044 61.1713 346.836 63.0228 351.403C63.319 352.233 64.0596 352.959 64.6521 353.167C69.1697 354.101 72.3542 358.252 75.6868 361.884C77.168 363.44 78.427 365.308 79.8341 366.969C79.6119 367.487 79.3157 368.006 79.0935 368.525C73.465 364.789 69.3178 356.695 62.06 355.761C62.6525 357.629 63.0969 358.874 63.4672 359.808C62.5785 361.676 61.8379 363.336 61.0973 364.997C60.0605 363.233 59.0977 361.572 58.209 359.912C57.6906 361.157 57.3203 361.987 56.95 362.818C56.4316 362.299 55.7651 361.884 55.3207 361.157C54.8764 360.535 54.5061 359.808 54.0617 359.082C54.1358 359.704 54.2099 360.223 54.2839 360.846C54.5061 362.61 53.099 363.648 52.2843 363.025C52.0621 363.959 51.914 364.893 52.2103 365.62C51.7659 365.723 51.3956 365.827 50.9513 365.827C50.8032 363.336 50.7291 360.742 50.581 358.252C50.8032 358.355 51.0253 358.459 51.2475 358.563C51.1735 357.836 51.0994 357.006 50.9513 356.28C50.8032 357.11 50.655 357.629 50.5069 358.252C48.8036 359.393 47.9149 358.77 47.1002 356.176C46.2856 353.686 45.7672 349.742 42.2864 352.025C41.768 344.346 39.5463 339.157 33.6216 338.016C33.6216 343.723 33.8438 349.016 33.5476 354.308C33.3254 358.563 34.8065 360.327 37.2505 362.091C42.1383 365.619 46.8781 369.563 51.6919 373.195C53.4693 374.544 55.2467 376.516 57.0981 376.931C63.1709 378.384 67.096 383.78 71.1692 389.591C73.465 392.912 73.1688 395.506 72.0579 398.412C71.0952 396.959 70.2065 395.714 69.3178 394.365C68.8734 393.638 68.5031 392.912 68.2809 392.082C67.9847 390.94 67.8366 389.695 67.6144 388.553C66.7998 389.072 65.9851 389.695 65.1705 390.214C66.0592 392.082 67.096 393.846 67.8366 395.921C69.6881 401.11 71.5395 406.299 73.1688 411.591C73.391 412.214 72.7985 413.459 72.5763 414.393C72.132 413.667 71.5395 413.044 71.3173 412.11C71.0211 410.969 71.0211 409.62 70.7989 407.855C69.3178 410.969 68.2069 413.355 67.022 415.846C66.5776 415.638 66.1333 415.535 65.6148 415.327C69.2437 408.478 68.2069 402.355 64.8743 395.299C64.2818 399.346 63.9115 402.148 63.5412 404.846C63.245 404.846 62.9487 404.742 62.5785 404.742C62.5785 403.393 62.3563 401.94 62.5785 400.591C63.3931 395.818 63.319 391.77 61.0973 387.204C58.6534 382.016 54.7283 380.252 51.6178 376.827C48.7295 373.61 45.3969 371.223 41.9902 368.214C41.8421 377.346 43.7676 381.808 48.8036 384.921C49.9885 385.648 51.1734 386.686 52.2843 387.619C54.8764 389.799 57.5425 391.874 60.0605 394.157C60.5048 394.572 60.6529 395.714 60.8751 396.544C60.2826 396.855 59.468 397.686 59.0977 397.374C57.2462 396.025 55.3207 394.572 53.6174 392.808C47.9889 386.789 41.694 383.365 34.6584 381.393C33.9178 390.214 33.6957 398.308 39.7685 403.601C40.9534 404.638 42.0643 405.987 43.3233 406.921C50.581 412.629 55.0245 421.761 59.0236 431.516C59.1718 431.931 58.9496 432.553 58.9496 433.072C58.7274 433.28 58.4312 433.591 58.209 433.799C54.9504 428.091 52.0622 421.761 48.2852 416.78C44.3601 411.695 39.4722 407.855 34.9547 403.497C34.8806 403.704 34.6584 404.12 34.6584 404.431C35.1028 419.27 35.1768 434.214 36.2877 448.95C36.7321 455.072 37.1764 462.336 41.694 465.138C41.694 465.553 41.694 465.969 41.768 466.28H13.1815C13.1815 466.072 13.1815 465.761 13.1815 465.553C15.9957 463.27 17.3288 459.535 17.8472 455.072C19.8467 437.638 19.6986 419.997 19.5505 402.459C19.5505 402.252 19.3283 402.044 19.0321 401.629C18.3656 402.148 17.625 402.563 17.0325 403.289C12.515 408.789 8.07146 414.497 3.47983 419.893C1.0359 422.903 -1.70426 425.497 -5.25906 425.393C-5.03689 424.148 -4.59254 423.318 -4.07413 422.695C-1.25991 419.686 1.70243 416.987 4.44259 413.874C8.81204 408.893 13.0334 403.808 17.2547 398.723C18.1434 397.686 19.4024 396.336 19.5505 394.987C19.8467 390.525 19.6246 386.063 19.6246 380.148C14.8848 384.818 10.8116 388.761 6.7384 392.704C3.62795 395.818 1.33214 400.591 -2.96325 400.903C-3.4076 400.903 -3.77789 401.629 -4.14818 402.148C-5.85153 404.327 -7.55487 406.61 -9.33227 408.582C-9.77662 409.101 -10.6653 408.997 -11.3319 409.101C-8.59169 401.94 -3.92601 398.516 0.887788 395.195C0.665613 394.572 0.369379 393.95 0.147204 393.327C-2.14861 394.676 -4.66659 395.714 -6.81429 397.478C-9.92474 400.176 -12.4427 401.318 -14.8126 399.138C-9.92474 395.921 -5.62935 392.289 -0.963673 390.421C1.92461 389.28 2.8133 387.516 3.25766 383.884C1.18402 384.818 -0.741498 385.752 -2.59296 386.582C-2.74108 386.063 -2.88919 385.648 -3.03731 385.129C-0.963672 383.469 1.0359 381.704 3.1836 380.252C5.77564 378.487 7.18276 376.204 7.47899 373.091C5.25724 374.129 3.10954 375.167 0.887788 376.101C-1.18585 377.035 -4.07413 377.969 -5.77747 380.252C-5.40718 380.459 -4.66659 381.186 -4.66659 381.601C-4.66659 382.742 -5.03689 383.884 -5.40718 384.921C-5.77747 385.959 -6.36994 386.997 -6.9624 387.931C-7.85111 389.28 -8.88792 390.421 -9.85068 391.563L-10.4432 390.733C-10.221 389.384 -9.9988 388.035 -9.70257 386.27C-10.9616 386.997 -11.7762 387.516 -13.2574 388.45C-12.3687 386.063 -11.7762 384.61 -11.1837 383.053C-13.1093 384.403 -14.4423 386.478 -15.9975 388.242C-17.6268 390.006 -19.4042 391.563 -21.4038 393.431C-19.7005 387.62 -13.1833 379.11 -8.36952 376.101C-3.92601 373.403 0.517497 370.704 4.88694 367.903C7.77522 366.035 10.4413 363.855 13.4037 362.195C19.6986 358.77 20.3652 357.733 20.4392 348.289C20.4392 346.421 20.4392 344.45 20.4392 342.582C19.2543 343.204 18.1434 343.827 16.9585 344.346C16.9585 344.346 16.9585 344.346 16.9585 344.45C16.8844 344.45 16.8104 344.553 16.7363 344.553C15.4773 345.176 14.5145 342.686 15.4032 341.44C17.1066 339.157 18.7359 336.978 20.4392 334.695C20.4392 333.761 20.4392 332.931 20.4392 331.997C16.5141 336.459 13.2555 340.091 9.99698 343.723C9.40451 342.167 8.96016 340.921 8.36769 339.365C6.88652 344.346 6.88652 344.242 3.55389 342.789C1.77649 342.063 1.85055 343.827 2.14678 345.591C2.59113 347.978 2.2949 350.261 0.221261 350.157C-2.44484 350.157 -3.55572 352.44 -4.44442 355.346C-5.85153 360.016 -8.73981 362.403 -11.554 364.686C-11.9984 364.063 -12.3687 363.44 -12.813 362.818C-10.5172 360.638 -8.2214 358.459 -5.99964 356.384C-6.29588 355.969 -6.59211 355.45 -6.88835 355.035C-8.73981 355.969 -10.5913 357.006 -12.5168 357.629C-13.3314 357.836 -14.2942 356.903 -15.1829 356.487C-14.5164 355.761 -13.9239 354.62 -13.1833 354.204C-11.48 353.374 -9.62851 353.167 -7.85111 352.336C-3.92601 350.572 -2.96325 347.148 -5.33312 343.827C-6.51806 345.176 -7.62893 347.044 -9.03604 347.874C-11.4059 349.327 -14.072 349.846 -16.4419 351.299C-18.6636 352.648 -18.9599 350.676 -19.108 348.601C-19.182 347.667 -18.6636 346.629 -18.2193 344.865C-21.4038 346.629 -20.8113 349.016 -19.9226 350.987C-20.8113 353.063 -21.5519 354.827 -22.6628 357.421C-22.885 353.893 -23.0331 351.299 -23.1812 348.393C-24.8105 349.535 -26.1435 350.365 -27.6247 351.403C-26.5138 353.063 -25.6992 354.204 -24.9586 355.45C-25.1067 355.761 -25.3289 355.969 -25.477 356.28C-26.1435 355.865 -26.736 355.45 -27.4025 354.931C-28.2172 356.28 -28.9578 357.525 -29.6983 358.667C-29.9205 358.459 -30.1427 358.355 -30.3649 358.148C-29.9205 356.591 -29.4762 354.931 -28.8837 353.063C-32.6607 356.591 -36.1414 360.119 -39.6962 363.129C-42.3623 365.412 -44.51 367.903 -43.8435 372.884C-43.7694 373.299 -44.2138 373.818 -44.3619 374.336C-44.6581 374.44 -45.0284 374.544 -45.3247 374.648C-45.695 373.403 -46.5837 371.638 -46.2874 370.912C-44.6581 367.384 -43.177 363.544 -40.8812 360.95C-35.6971 355.035 -30.0686 349.846 -24.4402 344.242C-24.7364 343.308 -25.1067 342.27 -25.477 341.129C-20.2189 339.469 -19.6264 339.365 -19.6264 338.016C-19.7005 338.016 -19.7745 337.912 -19.8486 337.912C-19.9967 337.808 -20.1448 337.704 -20.2929 337.497C-21.2557 337.601 -22.2184 337.912 -22.885 337.393C-25.3289 335.214 -26.5138 336.252 -27.4766 339.676C-27.995 341.544 -28.9578 343.101 -29.6983 344.761C-31.0314 347.563 -32.3644 350.469 -35.2527 347.874C-35.4008 349.638 -35.4749 350.987 -35.6971 353.27C-36.9561 352.129 -37.8448 351.299 -38.7335 350.676C-39.4741 350.157 -40.2887 349.95 -41.1033 349.638C-41.918 349.327 -42.6586 349.223 -43.4732 349.016C-42.6586 348.497 -41.8439 347.874 -41.0293 347.355C-38.5854 345.799 -35.9933 344.45 -33.6234 342.686C-33.105 342.27 -33.105 340.403 -32.8088 339.261C-33.031 338.95 -33.2531 338.742 -33.4753 338.431C-36.5858 343.931 -38.5854 337.601 -41.3255 337.808C-40.8071 336.978 -40.2146 336.252 -39.8443 336.459C-36.882 337.497 -35.9193 335.11 -35.0305 331.893C-34.1418 328.572 -33.031 325.355 -31.846 321.516C-33.2531 319.855 -34.9565 317.884 -37.0301 315.393C-37.9929 318.091 -38.7335 320.063 -39.4741 322.035C-41.992 320.478 -40.5109 318.403 -39.9184 316.742C-39.0297 314.252 -39.1038 313.006 -41.2515 311.969C-43.0289 311.138 -44.51 309.167 -46.4355 307.403C-44.436 306.469 -43.177 305.846 -41.7699 305.119C-39.3259 308.233 -36.7339 311.761 -33.9937 314.978C-33.1791 316.016 -32.0682 316.638 -31.0314 317.365C-30.8092 315.704 -30.2168 313.94 -30.4389 312.384C-30.8833 309.478 -30.587 307.403 -28.6615 305.846C-28.1431 305.431 -27.8469 304.393 -27.4025 303.563C-28.9578 301.384 -29.9946 301.28 -31.1055 303.978C-32.0682 306.157 -33.4013 308.336 -35.9193 307.091C-35.4749 305.223 -35.1787 303.667 -34.8084 302.11C-35.4749 301.384 -36.0674 300.761 -36.9561 299.723C-35.9193 299.101 -35.2527 298.789 -34.5121 298.27C-35.4008 297.233 -36.2155 296.299 -36.9561 295.469C-38.2151 296.61 -39.3259 297.544 -40.5109 298.478C-40.5849 296.818 -40.659 295.053 -40.733 293.289C-41.4736 293.393 -42.3623 293.497 -43.3251 293.704C-43.0289 289.242 -42.4364 288.723 -40.1406 290.487C-37.4745 292.459 -34.8084 294.431 -31.9942 296.403C-31.1055 294.846 -30.2168 293.289 -29.5502 292.148C-29.7724 280.629 -35.9933 278.242 -42.3623 276.167C-41.3255 274.506 -40.659 273.572 -39.7703 272.223C-40.659 271.601 -41.2515 271.082 -41.8439 270.667C-41.6217 267.138 -40.659 265.789 -38.2891 267.761C-36.4377 269.318 -34.5121 270.459 -32.5866 271.808C-31.9201 269.318 -32.6607 267.865 -34.364 266.931C-35.4008 266.308 -36.2895 265.27 -37.2523 264.44C-37.0301 264.025 -36.882 263.506 -36.6598 263.091C-35.0305 264.025 -33.4013 264.855 -31.772 265.789C-31.5498 265.582 -31.3276 265.374 -31.1055 265.167C-31.6979 263.818 -32.2904 262.469 -32.7347 261.016C-33.031 260.082 -33.105 258.94 -33.3272 258.006C-32.5866 258.006 -31.772 257.695 -31.0314 258.006C-29.4021 258.733 -27.8469 260.082 -26.2176 260.393C-21.7741 261.119 -17.9971 263.714 -14.8126 267.969C-13.4055 269.836 -12.2946 270.044 -10.5172 268.695C-4.2963 264.025 -1.33397 255.516 2.07272 247.629C2.73925 246.072 2.88737 243.997 3.33172 241.818C2.2949 242.752 1.25808 243.478 0.295321 244.412C-2.74107 247.421 -5.62935 250.846 -8.88792 253.233C-12.813 256.138 -12.8871 255.723 -14.8867 250.431C-14.9607 250.119 -15.331 250.016 -15.7754 249.808C-15.8494 251.261 -15.8494 252.61 -15.9235 254.893C-17.3306 252.818 -18.2193 251.469 -19.182 250.016C-22.2925 252.818 -21.9963 249.186 -22.1444 246.487C-25.1067 250.846 -25.1067 250.846 -27.7728 246.799C-30.7352 248.252 -34.5121 246.903 -36.9561 243.167C-34.2159 241.714 -31.5498 240.365 -28.8096 239.016C-30.587 238.289 -31.9942 237.667 -33.3272 237.044C-33.2531 236.318 -33.2531 235.487 -33.1791 234.761C-27.3285 234.761 -21.5519 236.733 -15.5532 235.384C-16.8862 234.035 -18.2933 232.686 -19.8486 232.27C-21.626 231.752 -23.5515 232.478 -25.3289 231.959C-27.6247 231.336 -29.8465 229.987 -32.0682 228.95C-31.9942 228.431 -31.846 228.016 -31.772 227.497C-31.3276 227.497 -30.8092 227.393 -30.3649 227.497C-25.8473 228.535 -21.4038 229.469 -16.8862 230.506C-13.2574 231.336 -9.40633 231.44 -6.14776 233.308C-2.5189 235.384 0.961846 233.827 3.85013 232.478C9.47857 229.78 14.6627 225.214 19.9208 221.27C20.5873 220.752 20.9576 219.61 21.1798 219.299C18.6618 218.572 16.2179 218.469 14.2183 217.016C11.33 215.044 14.8848 210.478 13.0334 207.469C10.8857 211.412 8.96016 215.252 6.88652 218.884C1.77649 228.016 1.77649 228.016 -0.815555 227.912C1.10996 224.799 2.73925 221.997 4.44259 219.299C4.29448 219.195 4.22042 218.987 4.0723 218.884C2.66519 219.714 1.25808 220.648 -0.149031 221.478C0.443436 216.497 3.77607 217.016 5.62753 214.733C7.55305 212.346 9.18233 209.44 10.8857 206.742L9.92291 205.497C4.51665 209.544 -1.25991 212.969 -3.85195 222.308C-4.74065 221.478 -5.55529 220.648 -6.36994 219.818C-6.51805 220.025 -6.74023 220.129 -6.88835 220.336C-6.14776 222.204 -5.40718 224.176 -4.59254 226.355C-8.51763 226.355 -8.59169 226.148 -8.29546 221.063C-8.88793 222.101 -9.40633 222.931 -10.295 224.28C-10.8875 221.789 -11.4059 219.818 -11.7762 218.261C-15.5532 219.818 -19.0339 221.478 -22.6628 222.827C-24.9586 223.761 -26.736 223.553 -25.5511 218.987C-25.3289 218.053 -25.8473 216.808 -25.9954 215.667C-26.2176 215.667 -26.4398 215.667 -26.6619 215.667C-26.8841 216.601 -27.1063 217.535 -27.4766 218.884C-28.5134 217.223 -29.4762 216.186 -30.0686 214.733C-30.2908 214.214 -29.5502 212.138 -29.1799 212.035C-27.1804 211.723 -25.1808 211.931 -23.1812 211.931C-23.0331 211.412 -22.885 210.997 -22.7369 210.478C-23.6996 209.025 -24.5143 207.261 -25.6251 206.119C-27.7728 203.94 -28.8096 199.893 -27.7728 196.572C-27.3285 195.223 -26.8841 193.874 -26.1435 191.903C-18.5155 202.799 -8.07328 199.167 0.887788 203.11C0.961847 202.799 1.10996 202.384 1.18402 202.072C0.591556 200.516 -0.000912994 198.959 -0.59338 197.299C-1.40802 197.61 -2.07455 197.818 -2.14861 197.818C-4.59253 194.497 -6.66617 191.695 -9.18416 188.27C-9.48039 190.761 -9.62851 191.903 -9.85068 193.978C-11.1097 191.591 -12.0724 189.723 -12.8871 188.167C-15.4051 187.648 -17.7749 187.44 -20.1448 186.714C-23.4034 185.676 -24.3661 183.186 -23.9958 177.789C-20.2189 175.403 -15.2569 179.138 -11.2578 173.846C-14.8867 172.912 -17.6268 172.186 -21.1076 171.252C-21.7 169.902 -22.8109 167.204 -24.218 163.987C-22.5887 164.506 -21.7 164.818 -20.8113 165.129C-14.8867 166.582 -8.96198 168.035 -3.11137 169.487C0.147203 170.318 3.47983 171.148 6.7384 171.667C7.47899 171.77 8.29363 170.629 9.10827 170.11L8.8861 168.657C7.1087 170.94 6.44217 170.733 4.961 167.931C3.70201 165.44 0.29532 165.336 -1.11179 162.016C-1.11179 162.016 -1.33397 162.119 -1.6302 162.223C-1.92643 163.157 -2.22266 164.299 -2.5189 165.233C-5.25906 165.025 -7.62893 164.299 -7.55487 159.836C-11.554 158.487 -10.221 162.327 -9.9988 164.818C-13.3314 163.884 -13.4795 163.572 -12.6649 160.355C-15.9235 159.11 -16.3678 154.855 -17.7749 151.327C-19.2561 151.846 -20.8113 152.365 -22.2925 152.884C-22.4406 152.469 -22.5147 152.053 -22.6628 151.638C-21.4779 150.601 -20.2189 149.563 -19.108 148.629C-19.182 147.28 -19.2561 146.035 -19.4042 143.544C-18.1452 145.412 -17.5528 146.45 -16.8862 147.176C-14.8126 149.667 -10.8875 148.318 -10.5172 144.582C-10.0729 140.638 -8.88792 138.563 -6.29588 138.667C-7.48081 137.525 -8.66575 136.176 -9.9988 135.242C-10.9616 134.619 -12.3687 133.893 -13.1093 134.412C-15.8494 136.591 -17.2565 134.827 -18.5896 131.921C-19.9226 131.506 -21.3297 130.78 -21.9222 129.431C-23.4774 126.11 -21.5519 124.035 -19.9226 121.855C-18.8858 123.101 -17.9971 124.242 -17.0344 125.28C-16.2197 126.214 -15.2569 127.148 -14.4423 127.978C-15.1829 124.346 -18.5155 123.204 -18.1452 118.119C-17.2565 119.053 -16.8862 119.365 -16.5159 119.78C-12.3687 125.487 -8.29546 131.299 -4.07413 136.799C-1.33397 140.431 1.48026 143.959 4.51665 146.865C6.96058 149.148 9.25639 152.261 12.8112 151.535C18.3656 150.393 21.9204 145.204 22.0685 137.525C22.1426 135.138 21.6982 132.544 22.0685 130.261C23.1053 123.723 20.217 119.469 17.9953 114.487C17.8472 116.563 17.7731 118.223 17.625 120.61C16.5141 119.469 15.8476 118.846 14.5886 117.601C15.4773 120.61 15.9957 122.478 16.5141 124.346C16.2179 124.657 15.9216 124.969 15.6254 125.28C15.1811 124.035 14.6627 122.789 14.2183 121.544L13.4777 122.167C13.6258 124.865 13.774 127.563 13.9221 131.091C11.5522 129.431 10.2191 127.77 10.8857 124.035C11.1079 122.582 10.7376 120.818 10.5894 119.157C9.7748 119.884 8.96016 120.714 8.14552 121.336C7.40493 121.855 6.51623 121.959 5.70159 122.27C5.70159 121.233 5.62753 120.195 5.70159 119.157C5.77564 118.223 6.07188 117.289 6.29406 116.355C4.29448 116.77 2.66519 117.186 1.48026 117.497C0.591557 119.053 -0.223088 120.402 -0.963673 121.752L-1.6302 121.025C-1.48208 119.676 -1.33396 118.327 -1.18585 116.355C-3.11137 118.535 -4.74065 120.299 -6.07371 121.648C-5.85153 118.223 -5.62935 114.487 -5.40718 110.855C-5.85153 110.648 -6.29588 110.44 -6.74023 110.233C-7.48081 112.204 -8.2214 114.176 -9.1101 116.355C-9.62851 114.487 -9.9988 112.723 -10.221 112.101C-12.3687 111.063 -13.9239 110.233 -15.4791 109.506C-15.4791 109.091 -15.4791 108.572 -15.5532 108.157C-14.3682 107.223 -13.1833 106.289 -11.9984 105.252C-14.8126 99.7516 -17.1825 109.506 -20.2189 105.252C-17.6268 102.553 -19.108 99.9591 -20.2929 97.5723C-18.8858 93.7327 -17.4787 93.8365 -15.6272 96.7421C-14.4423 98.5063 -12.813 99.6478 -11.4059 101.101L-10.9616 100.374L-12.4427 96.9497C-12.2946 96.6384 -12.0724 96.327 -11.9243 96.0157C-11.0356 96.6384 -9.9988 96.9497 -9.25822 97.7799C-5.03689 103.176 0.0731476 104.94 5.55347 105.044C6.59029 105.044 7.6271 104.006 9.40451 103.072C5.18318 101.516 5.03506 100.893 6.59028 96.6383C5.25723 94.978 4.0723 93.2138 2.73925 91.8648C1.33214 90.4119 -0.223089 89.2704 -1.25991 88.3365C-2.14861 90.4119 -2.66702 91.761 -3.4076 93.6289C-4.74065 90.7233 -5.62935 88.8553 -6.51805 86.8836C-5.48124 85.1195 -4.51848 83.3553 -3.48166 81.5912C-4.00007 80.1383 -4.51848 78.8931 -5.11094 77.3365C-5.62935 78.8931 -5.99964 80.1383 -6.36994 81.2799C-6.66617 81.1761 -6.9624 81.1761 -7.25864 81.0723C-7.11052 77.8553 -6.9624 74.6383 -6.74023 70.1761C-4.66659 72.5629 -3.25948 73.9119 -2.07455 75.6761C2.36896 82.4214 2.59113 82.5251 7.84928 78.5817C7.92334 78.5817 7.92334 78.3742 7.92334 78.0629C5.55347 76.4025 3.40578 74.4308 5.99782 70.2799C4.51665 70.0723 2.2949 70.1761 2.2949 69.761C1.85055 65.2987 0.295319 65.4025 -2.00049 67.6855C-1.77832 64.9874 -1.55614 62.9119 -1.40802 60.7327C-1.33396 59.5912 -1.33397 58.4497 -1.25991 57.3082C-0.519323 57.7232 0.517495 57.9308 0.961845 58.761C5.10912 65.2987 10.8116 67.3742 16.5141 69.9685C16.8844 68.1006 17.1806 66.6478 17.4769 65.195C17.3288 65.0912 17.2547 64.9874 17.1066 64.9874C16.7363 65.61 16.2919 66.3365 15.6254 67.478C14.9589 61.3553 11.6263 65.4025 9.70074 63.8459C10.071 61.978 10.3673 60.2138 10.7376 58.4497C10.5894 58.3459 10.3673 58.2421 10.2191 58.1383C9.25639 59.2799 8.36769 60.5251 6.66435 62.4968C6.07188 57.827 5.62753 54.0912 5.18318 50.4591C4.36854 51.2893 3.25766 52.2233 1.62837 53.7799V42.3648C5.18318 45.6855 7.9974 48.5912 11.1079 51.0817C14.5145 53.7799 18.0693 54.4025 22.2907 51.9119C20.143 50.3553 18.4396 49.11 16.5141 47.6572C17.3288 44.7516 16.8104 42.261 14.4405 39.978C12.3668 38.0063 10.8857 34.8931 9.10827 32.2987C9.33045 31.9874 9.55262 31.5723 9.7748 31.261C11.8484 33.0251 13.9221 34.9968 15.9957 36.6572C18.2175 38.4214 20.5133 39.8742 23.4756 42.0534C22.9572 39.978 22.9572 39.044 22.5869 38.5251C18.958 33.6478 15.4032 28.6666 11.5522 24.3082C10.1451 22.7515 7.92334 22.544 5.77564 21.61C7.18275 19.327 8.14551 17.978 9.33045 16.11C8.07146 15.6949 7.40493 15.4874 6.51623 15.2799C8.66392 11.9591 10.2192 14.3459 11.5522 16.0063C14.2924 19.4308 16.9585 22.544 21.2539 20.7799C20.4392 17.044 19.5505 13.6195 16.6622 11.8553C14.5145 10.61 13.848 7.91193 14.7367 5.42136C16.4401 9.67608 17.1806 9.46853 19.5505 4.17608C21.1057 5.62891 22.5869 7.08174 24.8827 9.15721C24.5124 5.62891 24.2902 3.24211 23.994 0.855321C24.2162 0.647774 24.4384 0.336453 24.7346 0.128906C26.3639 2.41193 29.03 4.38362 29.4003 6.97796C29.9927 11.0251 28.9559 15.5912 28.5856 19.9497C28.8078 20.261 28.9559 20.4685 29.1781 20.7799C30.9555 18.2893 32.807 15.6949 35.1768 12.3742C35.4731 13.9308 36.0655 15.5912 35.9915 17.044C35.8434 19.327 35.2509 21.61 34.7325 24.4119C34.2881 24.5157 33.1773 24.7232 31.6961 25.0346C32.5107 27.0063 33.1773 28.4591 33.7697 29.9119L33.2513 30.4308C32.4367 29.4968 31.622 28.4591 31.2517 28.1478C29.8446 28.5629 28.8819 28.7704 27.9191 29.0817C27.5488 29.1855 26.8082 29.7044 26.8082 30.0157C27.0304 33.0251 27.4007 36.0346 27.8451 39.044C27.8451 39.2516 28.5856 39.3553 28.9559 39.2516C30.8815 38.5251 37.6948 31.5723 39.3241 28.7704C39.9906 27.6289 40.5831 26.5912 41.2496 25.5534C41.694 26.9025 42.2124 28.3553 42.6567 29.8082C42.8789 30.4308 43.027 31.0534 43.1751 31.7799C39.4722 33.2327 40.8793 38.2138 39.5463 41.2232C35.9174 41.327 33.6216 44.8553 34.2881 49.3176C33.6957 49.4214 33.1032 49.4214 32.3626 49.5251C32.5848 51.1855 32.7329 52.4308 32.881 53.7799C31.6961 52.8459 31.2517 51.6006 30.5852 50.4591C30.1409 49.7327 29.3262 48.4874 28.9559 48.5912C26.512 49.6289 27.0304 52.7421 26.8823 55.3365C26.7342 57.5157 27.4007 59.2799 29.1781 58.6572C32.7329 57.3082 36.3618 55.8553 39.7685 53.7799C41.9902 52.4308 46.2856 53.1572 48.063 56.7893C45.545 58.0346 43.1011 59.2799 41.4718 60.11V67.9968C41.6199 68.1006 42.5827 69.0346 42.953 68.7233C45.3228 66.6478 48.2111 64.7799 49.6182 61.7704C51.2475 58.3459 52.9509 58.1383 55.5429 58.0346C54.2839 62.4968 52.5065 66.7516 56.5057 69.8648C55.3207 71.3176 54.432 72.2516 54.2098 72.5629C54.358 75.5723 54.5061 77.7516 54.5801 79.5157C52.9509 81.9025 50.2107 74.9497 49.5442 81.3836C53.3952 83.2516 57.0241 82.0063 60.6529 79.827C60.727 79.7233 60.9492 80.1383 61.3195 80.4497C60.5048 82.8365 59.9864 85.6383 58.8015 87.5063C57.7647 89.1666 55.9132 89.7893 53.9136 91.2421C57.0241 93.4214 60.4308 90.7233 62.3563 95.6006C60.9492 96.0157 59.7642 95.8082 59.0977 96.5346C57.5425 98.2987 56.2835 99.0251 54.2098 97.4685C53.3211 96.8459 51.4697 98.7138 50.1366 99.4402C50.2848 100.478 50.4329 101.723 50.655 102.969C49.5442 103.487 48.6555 103.903 47.7668 104.318C47.7668 104.733 47.6927 105.148 47.6927 105.563C49.7663 106.289 51.84 107.016 53.9877 107.742C54.0617 108.157 54.1358 108.469 54.2098 108.884C52.5065 109.921 50.8032 110.959 49.0998 111.997C52.2843 111.997 55.2467 111.374 58.209 110.752C63.0969 109.61 68.0588 108.157 72.9466 107.223C74.2056 107.016 75.6127 108.053 76.9458 108.676C77.242 108.884 77.6123 109.921 77.5383 110.44C77.4642 110.959 76.9458 111.374 76.5755 111.686C74.8721 113.242 73.1688 114.695 71.0211 116.563C70.6508 115.318 69.9102 113.138 68.9475 110.025C68.4291 112.412 68.355 114.28 67.6885 115.421C65.763 118.846 63.5412 122.063 61.3195 125.591C60.727 124.657 60.1345 123.723 59.468 122.789C59.3199 124.553 59.9864 125.903 60.0605 127.252C60.1345 128.186 59.468 130.157 59.1718 130.157C57.0981 130.261 55.0986 129.95 52.8027 129.742C52.2843 130.157 51.3956 130.884 50.5069 131.61L49.3961 124.761C48.8036 125.903 48.8036 127.148 48.6555 128.289C48.4333 129.431 48.063 130.469 47.7668 131.61C47.0262 131.195 46.2115 130.987 45.6931 130.261C44.6563 128.808 43.7676 127.148 42.8049 125.591C42.4346 125.799 42.0643 126.11 41.694 126.318C41.8421 128.393 42.0643 130.469 42.2124 132.752C38.2132 134.101 36.4358 129.431 34.066 126.006C33.8438 128.912 33.6957 131.195 33.4735 134.101C34.6584 133.167 35.2509 132.752 35.9915 132.129C37.2505 135.035 38.4354 137.525 39.5463 140.119C39.3241 140.327 39.176 140.535 38.9538 140.846C37.6948 139.289 36.3618 137.733 35.1028 136.176C34.8806 136.384 34.6584 136.487 34.5103 136.695C35.0287 138.563 35.4731 140.431 36.0655 142.506C33.7697 142.299 32.2886 141.365 31.8442 137.733C31.622 135.865 30.363 134.101 29.6225 132.336C28.9559 136.072 29.104 139.393 28.9559 142.61C28.8078 145.723 29.6965 147.902 31.3999 149.978C36.1396 155.686 41.9902 157.035 47.7668 158.695C48.2852 158.903 48.9517 158.487 49.5442 158.176C52.2103 156.723 54.8023 155.167 57.4684 153.714C58.2831 153.299 59.2458 153.091 60.6529 152.676C60.1345 154.44 59.9123 155.27 59.3939 156.931C61.0973 155.374 62.2822 154.336 63.6893 153.091C64.6521 156.308 65.5408 156.931 67.6144 154.648C69.6881 152.365 72.5023 151.327 75.0203 149.874C75.5387 149.563 76.2793 150.082 76.9458 150.186C76.7977 151.016 76.7236 152.053 76.4274 152.78C76.2052 153.299 75.6868 153.506 75.3165 153.921C77.6123 160.459 77.0198 163.261 72.9466 165.855C72.8726 167.101 72.8726 168.242 72.7985 170.214C71.1692 168.657 69.9843 167.516 68.7994 166.27L67.1701 165.129C72.132 173.742 66.7998 171.459 65.0224 173.327C65.837 173.846 66.7257 174.365 67.3182 173.95C71.5395 171.044 77.6123 172.082 78.3529 163.365C79.76 164.195 81.019 164.921 82.2039 165.648C82.9445 166.167 83.6851 166.789 84.4997 167.308C83.6851 167.619 82.9445 167.827 82.1299 168.242C81.3152 168.553 80.1303 168.657 79.8341 169.384C79.5378 170.318 79.9822 171.77 80.3525 172.808C80.7228 173.742 81.6115 174.261 82.1299 175.091C82.6483 175.921 83.0926 176.855 83.611 177.686C82.7964 177.997 81.9818 178.308 81.1671 178.412C80.7228 178.516 80.2044 178.308 79.9822 178.308C79.0935 180.072 78.3529 181.525 77.6864 182.874C77.9085 184.327 78.0567 185.987 78.2788 187.44C75.4646 188.374 76.4274 180.591 73.3169 184.223C71.9098 185.884 71.1692 188.478 69.9843 190.969C69.1697 189.723 68.2069 188.167 67.2441 186.61C67.096 186.818 66.8738 186.921 66.7257 187.129C67.2441 188.893 67.7625 190.761 68.4291 192.836C67.2441 193.148 66.3554 193.252 65.3186 193.563C66.0592 195.431 66.6517 196.987 67.7625 199.686C65.9111 199.167 64.9483 199.167 64.0596 198.648C62.2082 197.506 60.801 194.289 58.2831 196.469C58.209 196.572 57.3203 195.223 57.0241 194.393C56.5797 193.148 56.2835 191.903 55.9132 190.657C55.0986 191.176 54.5061 191.487 53.9136 191.903C53.5433 190.346 53.3211 188.997 52.8768 187.233C49.7663 191.28 46.9521 194.704 49.9145 201.035L48.8036 201.346C47.0262 197.195 45.2488 193.044 43.4714 188.893C43.5454 192.629 44.286 195.95 44.8044 199.27C44.9526 200.516 44.5823 201.865 44.5082 203.214C43.7676 202.695 42.8049 202.487 42.3605 201.657C40.8793 199.063 39.5463 196.261 38.0651 193.355C36.2877 198.752 34.4363 193.978 32.5848 193.252C30.8815 196.572 30.9555 203.11 32.7329 204.148C35.4731 205.808 38.2873 207.78 41.1756 208.195C46.2856 209.025 51.5437 209.752 56.5797 208.818C60.6529 208.091 64.4299 204.874 68.9475 202.384C68.5031 204.355 68.0588 206.223 67.6144 208.195C72.2061 206.535 76.9458 204.77 82.1299 202.799C81.3152 209.855 75.2424 206.223 74.3537 211.619C70.5768 210.167 70.5768 210.167 69.3918 216.289C71.9839 216.497 74.65 217.016 77.3901 216.808C78.5751 216.704 79.76 215.355 80.9449 214.525C81.7596 214.006 82.5742 213.384 83.3889 212.761C83.6851 213.176 83.9813 213.487 84.2776 213.903C83.0186 217.016 81.8336 220.129 80.5747 223.242C80.3525 223.035 80.1303 222.827 79.9081 222.723C79.9822 223.865 80.0562 225.11 80.1303 226.874C78.501 225.94 77.3901 225.214 76.2052 224.591C76.0571 225.006 75.8349 225.525 75.6868 225.94C77.242 227.186 78.7232 228.431 80.2784 229.78C80.2784 230.091 80.2044 230.403 80.2044 230.714C78.0567 230.506 75.909 230.299 73.0947 229.987V240.053C70.6508 239.016 68.5772 238.186 66.4295 237.252C64.1337 241.195 64.1337 241.195 59.1718 235.487C58.6534 236.94 58.2831 238.289 57.6906 239.535C57.2462 240.469 56.5797 241.195 55.9872 242.025C55.7651 240.78 55.2467 239.535 55.3948 238.393C55.5429 236.733 56.2835 235.176 56.5797 233.516C56.7278 232.789 56.4316 231.959 56.2094 230.403C55.0245 233.101 54.1358 235.072 52.8027 238.186C52.4325 234.45 52.2103 231.959 51.914 228.742C50.2107 231.336 49.6182 235.384 46.8781 233.101C45.1007 231.648 43.6195 229.676 41.768 227.601C41.1015 229.572 40.3609 231.648 39.2501 234.865C38.2132 231.752 37.3986 229.469 36.5839 226.978C35.7693 228.327 35.2509 229.157 34.3622 230.61C33.9919 228.95 33.8438 227.912 33.5476 226.874C33.2513 225.836 32.807 224.799 32.2886 223.346C31.1036 226.459 31.3999 235.072 32.5107 236.94C32.7329 237.252 32.9551 237.563 33.1773 237.77C38.5835 242.959 44.1379 247.94 51.0253 247.733C53.099 247.629 55.8391 247.525 57.1722 245.761C60.2826 241.921 63.8374 242.648 67.5404 241.195C67.3182 243.374 67.1701 244.827 67.022 246.384C69.9843 245.346 72.7245 244.308 75.4646 243.582C75.6868 243.478 75.983 243.582 76.2052 243.582L81.3893 243.686C82.5002 243.686 82.9445 245.242 82.5742 246.487C82.5742 246.591 82.5002 246.591 82.5002 246.695C82.8705 247.629 83.0186 248.667 83.3148 249.704C83.2408 249.704 83.1667 249.808 83.1667 249.808C83.2408 250.638 82.9445 251.365 82.2039 251.676C80.8709 252.195 79.4638 252.714 78.1307 253.233C78.1307 253.648 78.1307 254.167 78.1307 254.582C77.6123 254.167 77.242 253.855 76.8717 253.544C76.5755 253.44 76.2793 253.233 76.0571 252.921C75.983 252.921 75.983 252.818 75.909 252.818C75.7609 253.025 75.6127 253.129 75.4646 253.336C75.1684 254.167 74.7981 255.101 74.4278 256.035C75.6127 256.346 76.5755 256.553 78.3529 256.969C76.0571 258.525 74.5019 259.667 72.9466 260.704C75.0943 261.742 77.0198 261.95 78.8713 262.365C82.5002 263.195 82.5002 263.299 80.2044 267.138C77.0198 272.431 73.6132 272.223 70.5768 266.412C70.3546 265.997 69.9102 265.997 69.3178 265.582C69.1696 267.138 69.0956 268.28 68.9475 269.318C67.6144 269.836 66.4295 270.355 64.6521 270.978C67.6885 275.44 73.3169 275.336 72.9466 283.846C71.2433 281.978 69.9102 280.421 68.5772 278.969C64.7261 282.393 61.3935 281.667 58.4312 277.101C57.7647 278.138 57.1722 278.969 56.8019 279.487C54.2839 279.903 55.0986 272.327 51.6919 275.855C51.3216 274.714 50.9513 273.365 50.581 272.016C49.8404 272.95 49.0998 274.195 48.2111 274.921C47.3965 275.544 46.2856 275.959 45.3969 275.855C41.694 275.233 37.9911 273.78 34.2881 276.374C33.9919 273.676 33.6957 271.082 33.3254 268.487C30.8815 275.129 32.2145 280.006 36.5839 282.082C37.7689 282.601 38.9538 283.223 40.1388 283.431C51.2475 284.884 62.1341 288.931 73.465 288.931C80.6487 288.931 84.2776 285.506 86.4993 275.752C87.0177 273.572 89.2395 270.667 90.5725 270.77C92.8684 270.978 90.7947 273.365 90.6466 274.818C90.6466 274.921 90.5725 275.129 90.6466 275.233C93.3868 279.28 90.2022 280.629 88.9432 283.016C87.9805 284.884 87.2399 286.855 86.4253 288.827C85.6847 290.695 85.0182 292.563 84.2035 294.846C85.3144 296.506 86.3512 298.789 84.4257 301.903C81.7596 296.921 79.9081 301.28 77.4642 302.525C77.9826 303.77 78.427 304.808 78.8713 305.742C78.7232 306.053 78.5751 306.469 78.501 306.78C77.0198 306.157 75.5387 305.535 73.9834 304.912C73.7613 308.336 74.2056 311.969 73.1688 314.459C72.2801 316.846 69.8362 317.987 67.3182 320.478C77.0198 318.921 85.6106 315.912 93.1646 307.714C93.3127 308.129 93.5349 308.44 93.683 308.855C93.2386 309.997 92.8683 311.035 92.3499 312.384C94.942 311.45 97.534 310.516 100.052 309.582C100.2 309.893 100.274 310.308 100.422 310.62C99.4595 311.657 98.5708 312.695 97.6821 313.733C98.3487 314.874 99.0152 316.016 99.7558 317.157C99.6077 317.365 99.4595 317.572 99.3114 317.78C97.2378 317.157 95.0901 316.535 93.0165 315.912C92.8683 316.327 92.7202 316.846 92.6462 317.261L95.9788 319.855C95.6826 320.374 95.4604 320.789 95.1642 321.308H93.3127C93.0905 323.176 92.8683 324.629 92.7202 326.082C91.8315 325.563 90.9428 325.148 90.2022 324.525C89.3876 323.903 88.7211 322.969 87.9805 322.138C87.8324 322.346 87.6843 322.553 87.6102 322.761C88.9433 325.77 90.2022 328.884 91.7575 332.412C87.6102 332.204 86.7215 328.157 85.2403 324.629C85.0922 325.874 84.9441 327.223 84.6479 329.61C82.5742 327.223 80.8709 325.355 78.7972 322.865V331.789C76.8717 330.336 75.4646 329.299 73.9094 328.157C73.465 329.299 73.0207 330.44 72.5763 331.789C71.6136 331.167 70.873 330.648 70.0583 330.129C69.9102 331.686 69.7621 333.035 69.5399 335.11C67.9847 333.761 66.7998 332.723 65.6148 331.789C65.4667 332.101 65.2446 332.412 65.0964 332.723C66.2814 334.072 67.3182 335.629 68.5772 336.77C72.7985 340.506 77.0939 344.035 81.2412 347.77C82.8705 349.223 84.2035 351.195 85.6847 352.959C87.9064 355.553 90.2022 357.94 92.424 360.638C93.7571 362.195 95.9047 363.959 95.9788 365.827C96.3491 370.912 98.9411 373.403 101.015 376.619C101.681 377.657 102.348 378.591 103.607 380.459C101.681 380.148 100.644 379.94 100.2 379.836C99.6077 382.119 99.5336 384.299 99.3855 387.308ZM77.5383 247.733C77.5383 248.148 77.5383 248.459 77.5383 248.874C77.8345 248.563 78.1307 248.148 78.3529 247.733C78.1307 247.733 77.8345 247.733 77.5383 247.733ZM-9.25822 380.667C-9.48039 380.77 -9.77663 380.978 -9.9988 381.082C-9.85068 381.393 -9.77663 381.601 -9.62851 381.912C-9.48039 381.497 -9.40633 380.978 -9.25822 380.667ZM9.62668 368.629C9.70074 368.629 9.7748 368.733 9.84886 368.733C10.1451 368.318 10.3673 367.903 10.6635 367.487C10.2191 367.695 9.84886 368.11 9.62668 368.629ZM19.9949 365.412C18.5878 366.657 17.1806 367.903 15.8476 369.044C15.6254 370.082 15.107 370.808 14.4405 371.535C14.2924 372.157 14.0702 372.676 13.9221 373.299C13.6258 374.233 13.0334 374.959 12.2928 374.648C11.6263 374.44 11.1078 373.299 11.33 372.365C11.33 372.261 11.4041 372.157 11.4041 371.95C10.7376 373.299 10.1451 374.855 9.84886 376.412C9.55262 377.761 8.58986 377.969 7.92334 377.45C7.6271 378.695 7.25681 379.836 6.96058 380.978C6.29405 383.261 5.18318 385.233 4.29447 387.308C4.44259 387.62 4.66477 388.035 4.81289 388.346C5.92376 387.723 7.1087 387.308 8.14552 386.478C10.4413 384.506 12.6631 382.223 14.9589 380.044C19.7727 375.582 20.8836 372.884 19.9949 365.412ZM18.6618 68.2044V68.6195C18.6618 68.5157 18.6618 68.3082 18.6618 68.2044ZM22.0685 87.5063C21.9204 86.5723 21.9204 85.5346 21.6241 84.8082C20.8095 82.7327 19.7727 80.761 18.5137 78.0629C18.1434 80.4497 17.8472 82.6289 17.3288 85.8459C15.3292 83.8742 13.4777 82.11 11.8484 80.5534C11.4041 83.7704 12.4409 86.3648 15.107 86.9874C16.8103 87.4025 18.5137 87.8176 20.217 88.0251C20.8095 88.1289 21.402 87.7138 22.0685 87.5063ZM19.3283 280.421C19.4024 280.214 19.4024 280.006 19.4765 279.799C19.4765 280.006 19.4024 280.214 19.3283 280.421ZM21.6982 193.667C18.2915 197.091 15.2551 192.525 12.2187 195.223C11.6263 195.742 9.55263 192.836 8.14552 191.591C7.03464 193.77 5.70159 196.261 4.59071 198.855C4.22042 199.686 4.14636 201.035 4.29447 201.969C4.44259 202.591 5.47941 203.318 5.92376 203.11C10.8857 200.827 15.8476 198.336 20.8095 195.846C20.9576 195.638 21.1057 195.119 21.6982 193.667ZM3.10954 270.978C4.73883 273.261 13.1074 273.987 15.1811 272.12C18.4396 269.214 22.3647 266.931 20.5133 259.978C19.2543 262.469 17.7731 265.27 16.5882 267.657C13.848 265.789 11.8484 264.44 9.7748 262.884C11.5522 261.327 13.6258 259.667 15.5514 258.006C13.6258 256.346 12.2187 255.204 10.3673 253.648C9.55263 254.167 8.36769 254.997 6.66435 256.138C6.88652 254.374 7.03464 253.233 7.25681 252.091H4.22042C5.18318 256.242 6.14594 260.186 7.03464 264.129C7.62711 266.723 7.70116 269.006 4.88694 269.525C4.59071 268.591 4.29447 267.553 3.92418 266.204C3.40577 266.619 2.81331 266.931 2.81331 267.242C2.81331 268.487 2.66519 270.252 3.10954 270.978ZM-5.185 274.714C-3.85195 276.374 -3.11137 278.242 -2.37078 278.242C0.961845 278.138 4.29447 277.516 7.6271 277.101C7.6271 276.582 7.55305 276.063 7.55305 275.544C4.961 274.921 2.44301 274.195 -0.223088 273.884C-1.48208 273.676 -2.74108 274.195 -5.185 274.714ZM-5.40718 292.563C-1.33396 293.082 2.2949 294.016 5.92376 293.808C8.44175 293.704 10.8857 292.252 13.3296 291.421C13.0334 291.006 12.9593 290.384 13.1074 289.761C13.1074 289.657 13.1815 289.553 13.1815 289.45C10.5154 290.072 7.77522 291.214 5.10912 291.214C2.36895 291.214 -0.223087 287.374 -3.62977 292.355C-3.4076 289.035 -3.25948 287.478 -3.18543 285.921C-3.48166 285.818 -3.77789 285.714 -4.07413 285.61C-4.51848 287.997 -5.03689 290.487 -5.40718 292.563ZM-15.7754 316.327C-12.1465 320.478 -8.88792 318.195 -7.77705 310.827C-10.7394 312.903 -13.1093 314.563 -15.7754 316.327ZM-17.4046 293.186C-15.331 294.846 -13.5536 296.299 -11.1837 298.167C-12.2946 294.846 -13.2574 291.836 -14.3682 288.412C-15.5532 290.28 -16.3678 291.525 -17.4046 293.186ZM-18.2193 279.591C-19.108 277.619 -19.7745 276.063 -20.8113 273.78C-22.0703 274.195 -23.6996 275.233 -25.3289 275.025C-26.5138 274.818 -27.6247 273.157 -28.8096 272.016L-28.4394 270.978C-29.8465 271.289 -31.3276 271.601 -32.7347 271.808C-28.7356 276.789 -24.144 279.799 -18.2193 279.591ZM-21.7 295.572C-20.2929 293.289 -18.8118 291.11 -17.3306 288.827C-17.5528 288.412 -17.849 287.893 -18.0712 287.478C-18.8118 287.997 -19.5523 288.827 -20.367 288.827C-21.0335 288.827 -21.7 287.893 -22.4406 287.374C-22.6628 289.242 -22.885 291.11 -23.1071 292.978C-23.2553 292.667 -23.4034 292.355 -23.5515 292.044C-25.9954 293.601 -28.3653 295.157 -31.3276 297.025C-26.2917 300.865 -24.6624 300.45 -21.7 295.572ZM-16.1456 311.553C-20.2189 312.28 -23.4774 312.799 -26.736 313.318C-25.9214 316.846 -20.1448 316.223 -16.1456 311.553ZM20.3652 325.978C20.4392 317.469 19.9949 308.855 19.8467 300.346C19.8467 298.582 20.0689 296.818 20.2911 294.535C18.884 296.091 17.6991 297.129 16.8103 298.582C16.366 299.308 16.2179 300.761 16.366 301.799C16.8104 304.912 17.4769 308.025 18.0693 311.138L17.0325 312.072C16.1438 310.723 15.2551 309.478 14.4405 308.129C13.4777 306.676 11.33 313.836 10.8116 306.987C7.62711 307.403 7.9974 310.101 8.8861 313.214L7.9974 313.629C6.88652 311.45 5.8497 309.167 4.961 307.403C0.0731455 313.629 4.66477 319.233 6.29406 325.044C5.92376 325.252 5.62753 325.459 5.25724 325.667C3.85013 322.657 2.44301 319.752 0.961845 316.535C-0.66744 319.233 -2.07455 321.516 -3.62977 324.214C-4.51848 321.619 -5.185 319.544 -5.99964 317.365C-9.03604 320.27 -11.9243 322.969 -14.5904 325.874C-15.1829 326.601 -15.331 328.676 -15.1088 329.921C-14.9607 330.752 -13.8498 331.789 -13.1833 331.789C-9.55445 331.893 -5.85153 331.789 -2.14861 331.686C-1.6302 331.686 -1.11179 331.582 -0.667438 331.167C4.29448 326.704 8.14551 326.601 13.1815 330.752C12.589 331.686 11.9225 332.723 10.8857 334.28C14.2183 333.657 15.0329 331.27 14.8848 327.95C14.7367 325.252 15.2551 323.591 17.9212 322.346C17.5509 325.044 17.2547 327.016 16.8844 329.195C18.8099 329.921 20.3652 328.365 20.3652 325.978ZM38.8057 83.8742C37.6948 85.6383 36.8061 88.1289 36.4358 90.4119C36.0655 92.9025 37.2505 93.9402 38.8057 92.4874C40.1388 91.3459 40.8793 89.478 42.953 90.827C43.4714 91.1383 45.3228 87.2987 46.804 85.0157C49.0998 87.0912 49.322 84.1855 49.322 80.9685C48.7295 79.5157 48.1371 77.9591 47.5446 76.2987C45.9894 79.1006 44.3601 82.0063 42.5086 85.327C42.7308 85.2233 42.5086 85.4308 42.3605 85.327C41.1756 84.9119 39.176 83.3553 38.8057 83.8742ZM45.9153 110.233C45.3228 108.676 44.7304 107.016 44.4341 106.186C38.6576 104.94 33.5476 103.799 27.9932 102.657C30.5112 108.053 41.9902 112.619 45.9153 110.233ZM29.03 170.836C30.8815 172.186 32.6589 173.95 34.6584 174.78C38.4354 176.233 42.3605 177.27 46.2856 178.101C47.2484 178.308 48.5074 177.686 49.4701 177.063C53.3212 174.676 57.0981 172.082 61.0973 169.487C58.7274 165.752 55.9873 167.619 54.2839 169.072C50.4329 172.289 47.1743 171.563 45.3228 165.336C44.8785 166.478 44.5823 167.412 44.5082 167.723C42.8789 168.035 41.5459 168.346 40.1388 168.553C40.8793 169.487 41.6199 170.421 42.4346 171.459C39.6203 172.912 37.5467 171.667 36.3618 167.723C36.2137 167.101 36.8061 166.167 37.2505 164.61C35.325 161.186 34.14 167.723 32.0664 165.544V170.733C31.0296 170.214 30.289 169.903 29.4743 169.591C29.3262 170.006 29.1781 170.421 29.03 170.836ZM61.3935 382.742C62.7266 385.233 63.9856 387.827 65.3186 390.318C66.2814 385.855 63.9115 384.195 61.3935 382.742ZM34.3622 376.204C34.5844 379.006 38.2132 380.667 40.8793 379.836C40.435 376.516 40.0647 373.299 39.6203 370.082C39.0279 366.138 36.9542 365.204 34.2881 364.789C34.2881 368.94 34.066 372.572 34.3622 376.204ZM49.8404 301.695C51.6919 301.28 51.914 298.582 50.2107 296.921C48.7295 295.469 47.0262 294.535 45.2488 293.186C44.6563 296.195 44.212 298.686 43.6195 301.799C45.7672 301.799 47.8408 302.11 49.8404 301.695ZM58.1349 321.412C55.5429 318.506 53.173 315.912 50.655 313.11C49.9145 314.148 49.396 315.082 48.4333 316.431C48.1371 313.525 47.9889 311.346 47.7668 309.167C47.5446 309.167 47.2484 309.167 47.0262 309.167C46.2115 311.865 45.3969 314.459 44.286 317.78C47.3965 323.695 52.0622 325.459 58.1349 321.412ZM64.4299 317.572C66.5035 316.535 69.7621 317.053 69.3178 311.035C68.2069 312.176 67.096 313.421 65.9111 314.252C64.7261 315.186 63.3931 315.704 61.6898 316.742C62.2822 312.695 63.6893 309.063 59.9123 306.157C59.9864 308.648 60.1345 310.308 60.1345 311.969C60.1345 312.903 59.8383 313.836 59.6902 314.77C59.0977 314.148 58.2831 313.733 57.9868 313.006C56.5057 309.167 56.2094 309.063 54.2839 312.695C56.5057 316.95 60.9492 319.336 64.4299 317.572Z" fill="#615F5F"/>
</g>
<defs>
<clipPath id="clip0_2013_496">
<rect width="188" height="467" fill="white" transform="translate(-47)"/>
</clipPath>
</defs>
</svg>
