<svg width="100%" viewBox="0 0 1142 422" fill="none" xmlns="http://www.w3.org/2000/svg">
<path d="M1032.32 203.67H1032.12C1024.01 203.686 1018.74 195.179 1022.55 188.018L1058.92 119.575C1059.75 118.018 1060.18 116.283 1060.18 114.521V11.3258C1060.18 5.3765 1055.36 0.553833 1049.41 0.553833H740.759C734.81 0.553833 729.987 5.3765 729.987 11.3258V58.2471C729.987 64.1965 725.164 69.0178 719.216 69.0178H506.571H422.216C414.822 69.0178 409.626 61.7378 412.031 54.7445L425.756 14.8271C428.16 7.83515 422.964 0.553833 415.57 0.553833H268.851C264.171 0.553833 260.027 3.57649 258.596 8.03116L221.827 122.533C219.5 129.781 209.246 129.781 206.919 122.533L170.151 8.03116C168.72 3.57649 164.575 0.553833 159.895 0.553833H10.8655C3.47086 0.553833 -1.72511 7.83515 0.680227 14.8271L138.094 414.461C139.59 418.809 143.682 421.729 148.28 421.729H278.156C282.755 421.729 286.846 418.809 288.342 414.461L306.33 362.149C307.824 357.801 311.916 354.879 316.515 354.879H516.462H631.8H732.196C740.391 354.879 745.584 363.667 741.632 370.846L722.41 405.763C718.458 412.942 723.651 421.729 731.846 421.729H891.874C895.858 421.729 899.516 419.531 901.386 416.013L923.459 374.475C927.254 367.338 937.328 366.722 941.842 373.427C961.138 402.097 993.668 421.147 1030.62 421.715C1090.91 422.642 1141.35 372.997 1141.34 312.697C1141.34 252.579 1092.43 203.67 1032.32 203.67Z" fill="#231F20"/>
<path d="M1030.29 109.899V107.573V39.2199V29.8866H1020.96H768.101H758.768V39.2199V104.109V113.443H768.101H916.262L770.317 378.561L762.701 392.395H778.493H874.556H880.165L882.798 387.441L1029.2 111.952L1030.29 109.899Z" fill="white"/>
<path d="M1031.76 233.004C987.82 233.004 952.069 268.755 952.069 312.699C952.069 356.643 987.82 392.395 1031.76 392.395C1075.71 392.395 1111.46 356.643 1111.46 312.699C1111.46 268.755 1075.71 233.004 1031.76 233.004Z" fill="white"/>
<path d="M375.927 39.2212L257.694 383.062H167.637L49.4033 39.2212H139.002L213.821 272.22L288.639 39.2212H375.927Z" fill="white"/>
<path d="M445.532 235.828L424.246 167.066L402.958 235.828H445.532ZM325.934 316.215L396.376 107.687H453.515L523.958 316.215H470.04L457.016 273.64H391.475L378.45 316.215H325.934Z" fill="white"/>
<path d="M723.383 316.215H672.966L592.58 170.847V316.215H544.686V107.687H608.966L675.487 227.146V107.687H723.383V316.215Z" fill="white"/>
<path d="M1020.96 107.574L874.555 383.062H778.493L932.054 104.11H768.101V39.2212H1020.96V107.574Z" fill="#ED1C24"/>
<path d="M1031.76 372.023C999.054 372.023 972.441 345.412 972.441 312.701C972.441 279.99 999.054 253.378 1031.76 253.378C1064.47 253.378 1091.09 279.99 1091.09 312.701C1091.09 345.412 1064.47 372.023 1031.76 372.023ZM1031.76 242.338C992.966 242.338 961.402 273.902 961.402 312.701C961.402 351.498 992.966 383.062 1031.76 383.062C1070.56 383.062 1102.12 351.498 1102.12 312.701C1102.12 273.902 1070.56 242.338 1031.76 242.338Z" fill="#231F20"/>
<path d="M1013.25 277.102C1015.2 276.206 1016.91 275.64 1018.46 275.375C1019.7 275.184 1020.66 275.184 1021.32 275.375C1022.06 275.614 1022.3 275.915 1022.47 276.392C1022.83 277.411 1022.63 279.535 1021.95 281.808C1021.43 283.703 1020.67 285.664 1019.94 287.562L1019.66 288.274C1018.8 290.431 1017.88 292.711 1016.97 294.798C1016 296.992 1015.13 299.208 1014.18 301.674C1013.7 302.974 1013.24 304.288 1012.81 305.567C1013.12 301.388 1013.34 297.515 1013.48 293.779V293.776C1013.66 287.447 1013.59 282.142 1013.25 277.102ZM1026.81 329.687C1027.02 328.343 1027.28 327.118 1027.58 325.962C1028.32 323.24 1029.05 321.198 1029.87 319.528C1030.82 317.567 1032.04 315.647 1033.48 313.823C1035.07 311.835 1036.69 310.299 1038.05 309.496C1038.18 309.419 1038.3 309.362 1038.4 309.318C1038.41 309.454 1038.4 309.623 1038.38 309.816C1038.18 311.356 1037.47 313.339 1036.23 315.875C1035.25 317.85 1034.07 319.906 1032.7 321.987C1031.58 323.72 1030.23 325.539 1028.48 327.715C1027.92 328.394 1027.37 329.055 1026.81 329.687ZM1045.95 331.282C1046.44 330.616 1046.4 329.686 1045.85 329.066C1045.54 328.715 1045.11 328.508 1044.64 328.48C1044.2 328.45 1043.72 328.61 1043.37 328.923L1043.31 328.979C1040.5 331.483 1036.27 334.996 1032 336.606C1029.96 337.35 1028.22 337.407 1026.98 336.767C1027.03 336.726 1027.08 336.683 1027.13 336.639C1028.88 335.076 1030.58 333.292 1032.48 331.02C1035.95 326.919 1038.84 322.642 1041.07 318.304C1042.2 316.023 1043.36 313.664 1043.86 310.504C1043.95 309.808 1044.03 308.87 1043.81 307.754C1043.63 306.771 1042.98 305.326 1041.72 304.484C1041.18 304.124 1040.59 303.863 1039.96 303.714C1039.34 303.554 1038.53 303.524 1037.95 303.64C1036.78 303.838 1035.96 304.254 1035.28 304.632C1032.54 306.287 1030.72 308.351 1029.1 310.326C1027.37 312.503 1025.97 314.711 1024.81 317.076C1023.58 319.632 1022.84 322.186 1022.21 324.567C1021.48 327.456 1021.08 329.942 1020.94 332.391C1020.9 333.239 1020.92 334.13 1020.99 335.04C1020.12 335.616 1019.28 336.051 1018.49 336.328C1017.58 336.639 1016.79 336.734 1016.08 336.627C1015.81 336.602 1015.38 336.464 1014.97 336.332L1014.74 336.258C1014.17 336.042 1013.74 335.848 1013.37 335.644C1011.79 334.82 1010.88 333.235 1010.67 330.924C1010.55 330.003 1010.57 329.04 1010.58 328.022L1010.59 327.412C1010.61 326.422 1010.96 325.271 1011.26 324.258C1011.87 322.327 1012.74 320.219 1014 317.626C1015.4 314.728 1016.96 311.826 1018.46 309.018C1019.25 307.554 1020.03 306.09 1020.8 304.614C1021.07 304.083 1021.34 303.556 1021.6 303.027C1022.43 301.392 1023.29 299.702 1024.07 297.986C1025.09 295.831 1025.94 293.599 1026.82 290.744C1027.62 288.134 1028.13 285.58 1028.4 282.936C1028.53 281.326 1028.54 279.963 1028.41 278.646C1028.25 277.203 1027.94 275.51 1026.86 273.874C1026.31 273.027 1025.54 272.3 1024.69 271.826C1023.89 271.383 1022.99 271.114 1022.03 271.024C1020.28 270.872 1018.8 271.207 1017.58 271.558C1016.14 271.992 1014.66 272.571 1012.94 273.368C1012.76 272.699 1012.2 272.187 1011.5 272.082C1011.02 272.006 1010.57 272.128 1010.19 272.407C1009.81 272.687 1009.56 273.099 1009.49 273.564C1009.44 273.923 1009.39 274.283 1009.35 274.64C1009.32 274.836 1009.3 275.03 1009.27 275.226C1005.25 277.386 1001.41 280.038 997.827 283.111C994.05 286.388 990.583 290.147 987.527 294.283C985.891 296.519 984.514 298.608 983.315 300.672C981.926 303.08 980.789 305.196 979.761 307.703C979.707 307.838 979.655 307.992 979.623 308.135C979.454 308.87 979.582 309.628 979.982 310.267C980.383 310.907 981.007 311.352 981.743 311.522C982.477 311.694 983.231 311.564 983.875 311.166C984.514 310.764 984.961 310.139 985.127 309.407L985.147 309.331C985.695 306.95 986.706 304.479 987.455 302.828C988.478 300.595 989.623 298.494 990.862 296.575C993.446 292.504 996.554 288.842 1000.1 285.688C1002.66 283.375 1005.56 281.279 1008.72 279.455C1008.14 284.57 1007.8 289.634 1007.56 293.511C1007.46 295.338 1007.36 297.168 1007.27 298.996C1007.02 303.723 1006.77 308.611 1006.37 313.342L1004.38 333.179C1003.62 340.012 1003 346.795 1002.44 353.107C1002.36 354.008 1002.97 354.815 1003.86 354.984C1003.97 355.007 1004.08 355.018 1004.19 355.018C1004.54 355.018 1004.87 354.912 1005.17 354.714C1005.56 354.451 1005.82 354.052 1005.91 353.592C1007.03 347.691 1008 342.183 1008.86 336.776C1009.46 337.684 1010.22 338.496 1011.06 339.107C1011.6 339.506 1012.19 339.876 1012.95 340.282L1013.31 340.447C1013.82 340.692 1014.35 340.946 1015.06 341.148C1016.63 341.566 1018.38 341.519 1019.96 341.018C1020.78 340.767 1021.57 340.431 1022.5 339.932C1022.71 340.219 1022.91 340.448 1023.13 340.655C1023.6 341.128 1024.33 341.516 1024.6 341.622C1026.05 342.332 1027.81 342.658 1029.51 342.528C1030.97 342.42 1032.44 342.052 1033.89 341.431C1036.17 340.466 1038.32 339.06 1040.68 337.008C1042.64 335.275 1044.36 333.402 1045.95 331.282Z" fill="#231F20"/>
<path d="M1076.02 311.826C1075.65 310.452 1075.06 309.075 1074.32 307.842C1073.65 306.726 1072.83 305.644 1071.89 304.628C1070.32 302.907 1068.38 301.328 1065.97 299.803C1064.42 298.818 1062.88 297.97 1061.38 297.151C1060.89 296.883 1060.41 296.62 1059.94 296.36C1059.11 295.888 1058.16 295.328 1057.46 294.767C1057.1 294.478 1056.82 294.222 1056.64 294.004C1056.42 293.738 1056.33 293.622 1056.14 293.179C1055.4 291.584 1055.34 290.207 1055.95 288.847C1056.57 287.54 1057.85 286.155 1059.67 284.838C1060.44 284.271 1061.31 283.723 1062.33 283.16C1062.79 282.898 1063.18 282.683 1063.64 282.498C1064.02 282.33 1064.47 282.171 1065.04 282C1066.89 281.456 1069.07 281.035 1071.34 280.787L1071.41 280.779C1072.3 280.679 1072.97 279.926 1072.97 279.027C1072.96 278.067 1072.17 277.287 1071.21 277.287H1071.2C1069.28 277.298 1066.72 277.386 1064 277.967C1063.28 278.123 1062.69 278.282 1062.15 278.464C1061.48 278.672 1060.8 278.98 1060.34 279.191C1059.12 279.739 1058.05 280.292 1057.07 280.888C1055.21 282.007 1052.87 283.655 1051.31 286.5C1050.57 287.878 1050.16 289.466 1050.15 290.97C1050.12 292.396 1050.41 293.871 1050.99 295.347C1051.2 295.918 1051.65 296.835 1052.16 297.496C1052.69 298.212 1053.28 298.764 1053.72 299.166C1054.75 300.075 1055.74 300.743 1056.85 301.462C1057.69 302.008 1058.53 302.515 1059.34 303.01C1060.46 303.691 1061.52 304.339 1062.53 305.031C1064.43 306.323 1065.91 307.602 1067.05 308.942C1067.67 309.672 1068.22 310.438 1068.67 311.215C1069.09 311.958 1069.4 312.706 1069.6 313.508C1070.53 317.163 1069.04 321.41 1067.62 324.33C1065.77 328.13 1063.32 331.711 1060.53 334.687C1057.7 337.771 1054.21 340.284 1050.16 342.155C1048.19 343.08 1046.15 343.792 1044.08 344.266C1042.04 344.764 1039.79 344.964 1037.92 344.816L1037.75 344.802C1037.71 344.798 1037.66 344.798 1037.62 344.798C1036.73 344.798 1035.98 345.459 1035.88 346.359C1035.78 347.318 1036.47 348.182 1037.43 348.284C1038.2 348.367 1038.94 348.404 1039.67 348.404C1041.39 348.404 1043.03 348.194 1044.83 347.883C1047.08 347.464 1049.41 346.791 1051.75 345.882C1056.17 344.147 1060.34 341.686 1064.14 338.568C1068.29 335.175 1071.49 331.408 1073.63 327.371C1074.94 324.838 1075.79 322.452 1076.22 320.083C1076.77 317.238 1076.7 314.382 1076.02 311.826Z" fill="#231F20"/>
</svg>
