<svg width="40" height="40" viewBox="0 0 50 50" fill="none" xmlns="http://www.w3.org/2000/svg">
<path d="M16.2503 4.16602H33.7503C40.417 4.16602 45.8337 9.58268 45.8337 16.2494V33.7494C45.8337 36.9541 44.5606 40.0275 42.2945 42.2936C40.0285 44.5596 36.955 45.8327 33.7503 45.8327H16.2503C9.58366 45.8327 4.16699 40.416 4.16699 33.7494V16.2494C4.16699 13.0447 5.44005 9.97121 7.70612 7.70514C9.97218 5.43908 13.0456 4.16602 16.2503 4.16602ZM15.8337 8.33268C13.8445 8.33268 11.9369 9.12286 10.5304 10.5294C9.12384 11.9359 8.33366 13.8436 8.33366 15.8327V34.166C8.33366 38.3119 11.6878 41.666 15.8337 41.666H34.167C36.1561 41.666 38.0638 40.8758 39.4703 39.4693C40.8768 38.0628 41.667 36.1551 41.667 34.166V15.8327C41.667 11.6868 38.3128 8.33268 34.167 8.33268H15.8337ZM35.9378 11.4577C36.6285 11.4577 37.2909 11.732 37.7793 12.2204C38.2676 12.7088 38.542 13.3712 38.542 14.0618C38.542 14.7525 38.2676 15.4149 37.7793 15.9033C37.2909 16.3916 36.6285 16.666 35.9378 16.666C35.2472 16.666 34.5848 16.3916 34.0964 15.9033C33.608 15.4149 33.3337 14.7525 33.3337 14.0618C33.3337 13.3712 33.608 12.7088 34.0964 12.2204C34.5848 11.732 35.2472 11.4577 35.9378 11.4577ZM25.0003 14.5827C27.763 14.5827 30.4125 15.6802 32.366 17.6337C34.3195 19.5872 35.417 22.2367 35.417 24.9994C35.417 27.762 34.3195 30.4115 32.366 32.365C30.4125 34.3186 27.763 35.416 25.0003 35.416C22.2377 35.416 19.5881 34.3186 17.6346 32.365C15.6811 30.4115 14.5837 27.762 14.5837 24.9994C14.5837 22.2367 15.6811 19.5872 17.6346 17.6337C19.5881 15.6802 22.2377 14.5827 25.0003 14.5827ZM25.0003 18.7494C23.3427 18.7494 21.753 19.4078 20.5809 20.5799C19.4088 21.752 18.7503 23.3417 18.7503 24.9994C18.7503 26.657 19.4088 28.2467 20.5809 29.4188C21.753 30.5909 23.3427 31.2494 25.0003 31.2494C26.6579 31.2494 28.2476 30.5909 29.4197 29.4188C30.5918 28.2467 31.2503 26.657 31.2503 24.9994C31.2503 23.3417 30.5918 21.752 29.4197 20.5799C28.2476 19.4078 26.6579 18.7494 25.0003 18.7494Z" fill="white"/>
</svg>
