<svg width="24" height="24" viewBox="0 0 24 24" fill="none" xmlns="http://www.w3.org/2000/svg">
<path d="M22.7997 17.4008V6.60078C22.7997 5.60478 21.9957 4.80078 20.9997 4.80078H4.1877C3.1917 4.80078 2.3877 5.60478 2.3877 6.60078V17.4008C2.3877 18.3968 3.1917 19.2008 4.1877 19.2008H20.9997C21.9957 19.2008 22.7997 18.3968 22.7997 17.4008ZM21.2277 6.46878C21.6237 6.86478 21.4077 7.27278 21.1917 7.47678L16.3197 11.9408L20.9997 16.8128C21.1437 16.9808 21.2397 17.2448 21.0717 17.4248C20.9157 17.6168 20.5557 17.6048 20.3997 17.4848L15.1557 13.0088L12.5877 15.3488L10.0317 13.0088L4.7877 17.4848C4.6317 17.6048 4.2717 17.6168 4.1157 17.4248C3.9477 17.2448 4.0437 16.9808 4.1877 16.8128L8.8677 11.9408L3.9957 7.47678C3.7797 7.27278 3.5637 6.86478 3.9597 6.46878C4.3557 6.07278 4.7637 6.26478 5.0997 6.55278L12.5877 12.6008L20.0877 6.55278C20.4237 6.26478 20.8317 6.07278 21.2277 6.46878Z" fill="#ED1C24"/>
</svg>
