<svg width="24" height="24" viewBox="0 0 24 24" fill="none" xmlns="http://www.w3.org/2000/svg">
<path d="M8 2.39844C8.10156 2.39844 8.10156 2.39844 8.19922 2.5C8.30078 2.60156 8.60156 2.89844 8.60156 3.10156C8.60156 3.30078 8.60156 3.80078 8.69922 4.19922C8.89844 4.69922 9.10156 6 9.39844 6.69922C9.69922 7.39844 9.80078 7.80078 9.5 8.19922C9.19922 8.69922 7.30078 10.6016 7.30078 10.6016C7.30078 10.6016 7.80078 11.6016 8.39844 12.1992C8.89844 12.8984 9.69922 13.8984 10.6992 14.6992C11.6992 15.6016 12.8008 16.3984 13.8984 16.8984C15 15.8008 15.8984 14.8984 16.1992 14.6992C16.5 14.5 16.5 14.3984 17 14.6016C17.5 14.8008 18.1992 15.1016 19 15.1992C19.6992 15.3008 20.5 15.3984 21 15.5C21.5 15.6016 21.5 15.6016 21.6016 15.8008C21.8008 16 21.8984 16.3008 21.8984 16.3984C21.8984 16.5 21.8984 16.8008 21.8984 17.8008C21.8984 18.8008 21.8984 20.1992 21.8984 20.5C21.8984 20.8008 21.8984 20.8008 21.8008 21C21.6992 21.1992 21.6016 21.6992 21.6016 21.6992C21.6016 21.8008 21.1016 22 20.8008 22C20.5 22 19.3984 22 18.6992 21.8984C18 21.8008 16.1016 21.3984 15.3984 21.1016C14.6992 20.8984 12.3984 20.1016 9.60156 18C7 16 5.10156 13.3008 4 11.1016C2.89844 8.89844 2.30078 6.5 2.19922 5.30078C2 4.10156 2 3.60156 2 3.30078C2.10156 3 2.39844 2.69922 2.60156 2.60156C2.80078 2.5 3.10156 2.39844 3.39844 2.39844C3.69922 2.39844 4.5 2.39844 5.60156 2.39844C6.69922 2.39844 8 2.39844 8 2.39844Z" fill="#ED1C24"/>
</svg>
