<svg width="51" height="44" viewBox="0 0 51 44" fill="none" xmlns="http://www.w3.org/2000/svg">
<path d="M26.5607 1.07459C25.9749 0.488808 25.0251 0.488808 24.4393 1.07459L14.8934 10.6205C14.3076 11.2063 14.3076 12.1561 14.8934 12.7419C15.4792 13.3276 16.4289 13.3276 17.0147 12.7419L25.5 4.25657L33.9853 12.7419C34.5711 13.3276 35.5208 13.3276 36.1066 12.7419C36.6924 12.1561 36.6924 11.2063 36.1066 10.6205L26.5607 1.07459ZM27 16.1353L27 2.13525L24 2.13525L24 16.1353L27 16.1353Z" fill="#231F20"/>
<path opacity="0.6" fill-rule="evenodd" clip-rule="evenodd" d="M5.5 22.1353C5.5 21.0307 6.39543 20.1353 7.5 20.1353H43.5C44.6046 20.1353 45.5 21.0307 45.5 22.1353C45.5 23.2398 44.6046 24.1353 43.5 24.1353H7.5C6.39543 24.1353 5.5 23.2398 5.5 22.1353Z" fill="#231F20"/>
<path d="M24.4393 43.1959C25.0251 43.7817 25.9749 43.7817 26.5607 43.1959L36.1066 33.65C36.6924 33.0642 36.6924 32.1144 36.1066 31.5287C35.5208 30.9429 34.5711 30.9429 33.9853 31.5287L25.5 40.0139L17.0147 31.5287C16.4289 30.9429 15.4792 30.9429 14.8934 31.5287C14.3076 32.1144 14.3076 33.0642 14.8934 33.65L24.4393 43.1959ZM24 28.1353L24 42.1353L27 42.1353L27 28.1353L24 28.1353Z" fill="#231F20"/>
</svg>
